<?xml version="1.0" standalone="no"?>
<!DOCTYPE svg PUBLIC "-//W3C//DTD SVG 20010904//EN"
 "http://www.w3.org/TR/2001/REC-SVG-20010904/DTD/svg10.dtd">
<svg version="1.0" xmlns="http://www.w3.org/2000/svg"
 width="512.000000pt" height="512.000000pt" viewBox="0 0 512.000000 512.000000"
 preserveAspectRatio="xMidYMid meet">

<g transform="translate(0.000000,512.000000) scale(0.100000,-0.100000)"
fill="#000000" stroke="none">
<path d="M3562 4765 c-35 -8 -96 -28 -135 -46 -71 -32 -94 -54 -1315 -1273
-1031 -1030 -1247 -1250 -1267 -1293 -30 -62 -36 -107 -71 -498 -25 -284 -26
-304 -11 -356 33 -111 136 -189 251 -189 116 0 690 59 735 74 24 9 60 26 80
38 43 25 2378 2354 2455 2448 100 122 140 231 139 380 -1 117 -31 220 -93 315
-23 35 -99 120 -169 188 -106 103 -141 131 -204 161 -126 61 -266 79 -395 51z
m244 -330 c68 -34 246 -215 276 -281 30 -65 30 -154 0 -215 -12 -25 -68 -90
-132 -154 l-110 -110 -262 263 -263 262 105 105 c127 127 175 155 270 155 50
0 78 -6 116 -25z m-1174 -1968 l-979 -979 -282 -26 c-154 -14 -284 -22 -288
-19 -3 4 5 134 19 288 l26 282 979 979 978 978 262 -262 263 -263 -978 -978z"/>
<path d="M360 568 c-59 -30 -90 -77 -90 -137 0 -60 28 -111 76 -138 l39 -23
2173 0 c1985 0 2177 1 2208 16 50 24 77 68 82 133 4 66 -20 111 -78 145 -35
21 -36 21 -2200 24 l-2165 2 -45 -22z"/>
</g>
</svg>
