<svg width="18" height="23" viewBox="0 0 18 23" fill="none" xmlns="http://www.w3.org/2000/svg">
<path fill-rule="evenodd" clip-rule="evenodd" d="M10.1968 2.65116C11.5992 0.809638 13.5486 0.80072 13.5486 0.80072C13.5486 0.80072 13.8385 2.53214 12.4453 4.20011C10.9579 5.98092 9.26697 5.68972 9.26697 5.68972C9.26697 5.68972 8.94958 4.28894 10.1968 2.65116Z" fill="#212121"/>
<path fill-rule="evenodd" clip-rule="evenodd" d="M9.44563 6.90254C10.1672 6.90254 11.5059 5.91438 13.2488 5.91438C16.2489 5.91438 17.4289 8.04127 17.4289 8.04127C17.4289 8.04127 15.1208 9.21704 15.1208 12.0704C15.1208 15.289 17.9962 16.3983 17.9962 16.3983C17.9962 16.3983 15.9862 22.0353 13.2712 22.0353C12.0243 22.0353 11.0546 21.1981 9.74099 21.1981C8.40224 21.1981 7.07347 22.0665 6.20805 22.0665C3.72883 22.0665 0.596924 16.7193 0.596924 12.4213C0.596924 8.19253 3.24792 5.97406 5.73472 5.97406C7.35058 5.97372 8.60499 6.90254 9.44563 6.90254Z" fill="#212121"/>
</svg>
