<svg width="136" height="33" viewBox="0 0 136 33" fill="none" xmlns="http://www.w3.org/2000/svg">
<path d="M14.895 2.656C20.687 2.656 25.007 5.248 25.007 11.168C25.007 13.408 23.919 15.616 21.167 16.832C24.623 17.856 25.871 21.536 25.871 23.36C25.871 29.92 20.975 32 14.895 32C10.223 32 5.615 32 0.975 32V2.656C5.583 2.656 10.223 2.656 14.895 2.656ZM6.415 7.68V14.432H14.895C18.383 14.432 19.503 12.96 19.503 11.296C19.503 9.952 18.415 7.68 14.895 7.68H6.415ZM6.415 19.296V26.848H14.895C17.167 26.848 20.399 26.08 20.399 23.328C20.399 20.672 17.167 19.296 14.895 19.296H6.415ZM29.1 4.96C29.1 0.959999 35.116 0.959999 35.116 4.96C35.116 8.928 29.1 8.928 29.1 4.96ZM29.548 10.688H34.668V31.456H29.548V10.688ZM38.35 2.144H43.438V13.6C44.686 11.456 48.078 10.272 50.254 10.272C56.302 10.272 60.782 13.984 60.782 21.12C60.782 27.904 56.206 31.936 50.126 31.936C47.598 31.936 45.038 31.104 43.438 28.608L43.118 31.456H38.35V2.144ZM49.774 15.072C46.542 15.072 43.79 17.504 43.79 21.12C43.79 24.832 46.542 27.2 49.774 27.2C53.07 27.2 55.662 24.704 55.662 21.12C55.662 17.376 53.07 15.072 49.774 15.072ZM64.0063 4.96C64.0063 0.959999 70.0223 0.959999 70.0223 4.96C70.0223 8.928 64.0063 8.928 64.0063 4.96ZM64.4543 10.688H69.5743V31.456H64.4543V10.688ZM88.5843 31.936V21.088C88.5843 17.952 86.8883 15.552 83.5923 15.552C80.4563 15.552 78.3123 18.208 78.3123 21.344V31.936H73.2563V11.2H77.8003L78.1523 14.016C80.2323 11.936 82.3443 10.912 84.9363 10.912C89.8003 10.912 93.7043 14.56 93.7043 21.056V31.936H88.5843ZM100.784 5.76L105.904 5.216V11.072H111.6V15.488H105.872V24.416C105.872 26.4 106.96 27.36 108.56 27.36C109.36 27.36 110.256 27.104 111.024 26.72L112.464 31.104C110.992 31.68 109.776 31.936 108.208 31.968C103.728 32.128 100.784 29.568 100.784 24.416V15.488H96.9438V11.072H100.784V5.76ZM124.782 10.816C131.374 10.816 135.598 15.68 135.598 21.6C135.598 27.552 131.534 32.384 124.814 32.384C118.094 32.384 114.094 27.552 114.094 21.6C114.094 15.68 118.19 10.816 124.782 10.816ZM124.814 15.488C121.134 15.488 119.182 18.496 119.182 21.6C119.182 24.736 121.07 27.68 124.814 27.68C128.558 27.68 130.446 24.736 130.446 21.6C130.446 18.496 128.27 15.488 124.814 15.488Z" fill="url(#paint0_linear_608_134)"/>
<defs>
<linearGradient id="paint0_linear_608_134" x1="-1" y1="22.5" x2="136" y2="22.5" gradientUnits="userSpaceOnUse">
<stop offset="0.117708" stop-color="#FF007A"/>
<stop offset="0.227083" stop-color="#FE2DB7"/>
<stop offset="0.45625" stop-color="#5A0DFE"/>
<stop offset="0.682292" stop-color="#2E75FF"/>
<stop offset="1" stop-color="#6CF2FE"/>
</linearGradient>
</defs>
</svg>
