<svg width="19" height="14" viewBox="0 0 19 14" fill="none" xmlns="http://www.w3.org/2000/svg">
<path d="M2.71276 13.5351H15.7021C17.2487 13.5351 18.065 12.7534 18.065 11.2597V3.93094C18.065 2.43727 17.2487 1.65554 15.7021 1.65554H13.7973C13.2388 1.65554 13.0598 1.5648 12.7089 1.20883L12.1432 0.615554C11.7709 0.231667 11.3914 0.0432129 10.661 0.0432129H7.71801C6.98763 0.0432129 6.60812 0.231667 6.23577 0.615554L5.67008 1.20883C5.32637 1.55782 5.1402 1.65554 4.58167 1.65554H2.71276C1.16608 1.65554 0.356934 2.43727 0.356934 3.93094V11.2597C0.356934 12.7534 1.16608 13.5351 2.71276 13.5351ZM9.20741 11.3435C7.06639 11.3435 5.34786 9.66831 5.34786 7.57438C5.34786 5.47347 7.06639 3.79833 9.20741 3.79833C11.3556 3.79833 13.0741 5.47347 13.0741 7.57438C13.0741 9.66831 11.3556 11.3435 9.20741 11.3435ZM13.5324 5.00583C13.5324 4.51026 13.9692 4.07752 14.4919 4.07752C15.0075 4.07752 15.4443 4.51026 15.4443 5.00583C15.4443 5.52233 15.0075 5.92716 14.4919 5.93414C13.9692 5.93414 13.5324 5.52931 13.5324 5.00583ZM9.20741 10.0801C10.6324 10.0801 11.7781 8.96336 11.7781 7.57438C11.7781 6.17843 10.6324 5.06167 9.20741 5.06167C7.78961 5.06167 6.64392 6.17843 6.64392 7.57438C6.64392 8.96336 7.79677 10.0801 9.20741 10.0801Z" fill="url(#paint0_linear_285_4884)"/>
<defs>
<linearGradient id="paint0_linear_285_4884" x1="18.9504" y1="3.75352" x2="-0.80716" y2="3.96605" gradientUnits="userSpaceOnUse">
<stop offset="0.095163" stop-color="#FE2DB7"/>
<stop offset="0.471156" stop-color="#2936FF"/>
<stop offset="0.911126" stop-color="#6CF2FE"/>
</linearGradient>
</defs>
</svg>
