<svg width="22" height="22" viewBox="0 0 22 22" fill="none" xmlns="http://www.w3.org/2000/svg">
<path d="M5.35025 1.06851C4.76399 0.769642 4.46101 0.398964 3.1002 0.52318C2.65674 0.594569 2.13901 0.815264 1.71917 1.22033L12.0375 10.7339L15.8693 6.89474C11.6464 4.55211 5.52456 1.15737 5.35025 1.06851Z" fill="#4CAF50"/>
<path d="M21.016 11.2304C21.016 10.7197 20.8875 9.77293 19.8153 9.08413C19.8153 9.08413 18.1095 8.13748 15.8693 6.89474L12.0375 10.7339L16.7039 15.0365L19.2105 13.6539C20.1119 13.1249 20.946 12.6229 21.016 11.2304Z" fill="#FFC107"/>
<path d="M3.3507 21.8746C4.40532 21.9844 5.3879 21.3058 6.32179 20.763L16.7039 15.0365L12.0375 10.7339L1.68375 21.1075C2.07948 21.4715 2.63541 21.8002 3.3507 21.8746Z" fill="#F44336"/>
<path d="M0.924766 19.6605C1.02205 20.2888 1.16017 20.4557 1.34434 20.7434C1.44001 20.8634 1.55316 20.9873 1.68375 21.1075L12.0375 10.7339L1.71917 1.22033C1.29732 1.62733 0.974308 2.22047 0.924766 3.03532C0.830542 4.16307 0.875803 6.18959 0.884086 8.27376C0.898013 11.778 0.931222 15.6149 0.924766 16.8545C0.918486 18.0602 0.876057 18.9363 0.924766 19.6605Z" fill="#2196F3"/>
</svg>
