<svg width="28" height="28" viewBox="0 0 28 28" fill="none" xmlns="http://www.w3.org/2000/svg">
<path fill-rule="evenodd" clip-rule="evenodd" d="M14.0005 24.5C8.20099 24.5 3.50049 19.7995 3.50049 14C3.50049 8.2005 8.20099 3.5 14.0005 3.5C19.8 3.5 24.5005 8.2005 24.5005 14C24.5005 19.7995 19.8 24.5 14.0005 24.5Z" stroke="#262628" stroke-width="1.5" stroke-linecap="round" stroke-linejoin="round"/>
<path d="M13.9987 13.5625C13.7572 13.5625 13.5612 13.7585 13.5635 14C13.5635 14.2415 13.7595 14.4375 14.001 14.4375C14.2425 14.4375 14.4385 14.2415 14.4385 14C14.4373 13.7585 14.2413 13.5625 13.9987 13.5625Z" fill="#262628" stroke="#262628" stroke-linecap="round" stroke-linejoin="round"/>
<path d="M18.6657 13.5625C18.4242 13.5625 18.2282 13.7585 18.2305 14C18.2305 14.2415 18.4265 14.4375 18.668 14.4375C18.9095 14.4375 19.1055 14.2415 19.1055 14C19.1043 13.7585 18.9083 13.5625 18.6657 13.5625Z" fill="#262628" stroke="#262628" stroke-linecap="round" stroke-linejoin="round"/>
<path d="M9.33216 13.5625C9.09066 13.5625 8.89466 13.7585 8.89699 14C8.89699 14.2415 9.09299 14.4375 9.33449 14.4375C9.57599 14.4375 9.77199 14.2415 9.77199 14C9.77083 13.7585 9.57483 13.5625 9.33216 13.5625Z" fill="#262628" stroke="#262628" stroke-linecap="round" stroke-linejoin="round"/>
</svg>
