<svg width="97" height="25" viewBox="0 0 97 25" fill="none" xmlns="http://www.w3.org/2000/svg">
<g clip-path="url(#clip0_22_3069)">
<path fill-rule="evenodd" clip-rule="evenodd" d="M25.1635 12.1122C25.1635 9.02079 27.7619 6.50378 30.8533 6.50378C32.5623 6.50378 33.7784 7.17491 34.696 8.0489L33.6156 9.1293C32.9598 8.51361 32.0705 8.03592 30.8521 8.03592C28.5946 8.03592 26.8301 9.8535 26.8301 12.111C26.8301 14.3685 28.5946 16.1885 30.8509 16.1885C32.3147 16.1885 33.1474 15.6011 33.6817 15.0656C34.1193 14.628 34.4059 13.9994 34.5167 13.1372H30.8533V11.6086H36.01C36.0642 11.8822 36.0925 12.2101 36.0925 12.5651C36.0925 13.7127 35.7776 15.1364 34.7644 16.1495C33.7784 17.1757 32.5211 17.723 30.8521 17.723C27.7595 17.723 25.1611 15.2083 25.1611 12.1146L25.1635 12.1122ZM40.2608 10.4987C38.2639 10.4987 36.6339 12.0178 36.6339 14.109C36.6339 16.1896 38.2628 17.7194 40.2608 17.7194C42.2588 17.7194 43.8853 16.1873 43.8853 14.1079C43.8853 12.0167 42.2576 10.4975 40.2608 10.4987V10.4987ZM40.2608 16.2993C39.1674 16.2993 38.2227 15.397 38.2227 14.1102C38.2227 12.8104 39.1662 11.9211 40.2608 11.9211C41.3542 11.9211 42.2977 12.8093 42.2977 14.1102C42.2977 15.3959 41.3553 16.2993 40.2608 16.2993ZM48.1692 10.4987C46.1723 10.4987 44.5446 12.0178 44.5446 14.109C44.5446 16.1896 46.1723 17.7194 48.1692 17.7194C50.166 17.7194 51.7937 16.1873 51.7937 14.1079C51.7937 12.0167 50.1672 10.4975 48.1692 10.4987V10.4987ZM48.1692 16.2993C47.0758 16.2993 46.131 15.397 46.131 14.1102C46.131 12.8104 47.0746 11.9211 48.1692 11.9211C49.2626 11.9211 50.2073 12.8093 50.2073 14.1102C50.2073 15.3959 49.2626 16.2993 48.1692 16.2993ZM57.8751 10.7181V11.3054H57.8208C57.4658 10.8796 56.7817 10.4975 55.9207 10.4975C54.1149 10.4975 52.4578 12.0851 52.4578 14.1244C52.4578 16.1472 54.1137 17.7218 55.9207 17.7218C56.7817 17.7218 57.4658 17.3396 57.8208 16.9021H57.8751V17.421C57.8751 18.8022 57.1367 19.5417 55.9466 19.5417C54.9748 19.5417 54.3732 18.8435 54.1267 18.2573L52.7444 18.8317C53.1407 19.7882 54.1951 20.9653 55.9455 20.9653C57.8043 20.9653 59.3777 19.8696 59.3777 17.2028V10.7169L57.8751 10.7181ZM56.0563 16.2993C54.963 16.2993 54.0442 15.3817 54.0442 14.1244C54.0442 12.8529 54.9618 11.9223 56.0563 11.9223C57.1367 11.9223 57.9848 12.8517 57.9848 14.1244C57.986 15.3817 57.1379 16.2993 56.0563 16.2993ZM60.4735 6.88711H62.0611V17.5024H60.4735V6.88711ZM66.4121 16.2993C65.6054 16.2993 65.0298 15.929 64.663 15.206L69.4918 13.2067L69.3255 12.7963C69.0259 11.9907 68.1082 10.4987 66.234 10.4987C64.374 10.4987 62.8277 11.9624 62.8277 14.1102C62.8277 16.133 64.3599 17.7206 66.4121 17.7206C68.0681 17.7206 69.0259 16.7098 69.4222 16.1201L68.1908 15.3003C67.7792 15.903 67.2177 16.3005 66.4121 16.2993V16.2993ZM66.2883 11.894C66.917 11.894 67.4501 12.2089 67.6282 12.6595L64.3988 14.0005C64.3587 12.6052 65.4804 11.894 66.2883 11.894V11.894ZM76.4577 6.88711H72.6622V17.5024H74.2462V13.4816H76.4589C78.2152 13.4816 79.9419 12.2101 79.9419 10.1838C79.9419 8.16095 78.2164 6.88829 76.4613 6.88829L76.4577 6.88711ZM76.499 12.0037H74.2462V8.36382H76.499C77.6832 8.36382 78.3579 9.34632 78.3579 10.1838C78.3579 11.007 77.6832 12.0037 76.499 12.0037V12.0037ZM82.3988 17.5024V6.88711H80.8147V17.5024H82.3988ZM89.5145 17.4835V13.4143C89.5145 11.5295 88.1063 10.4786 86.2887 10.4786C85.1434 10.4786 83.9557 10.9846 83.4638 12.1039L84.8698 12.6901C85.1705 12.1039 85.7296 11.9117 86.3182 11.9117C87.1367 11.9117 87.9694 12.4035 87.9824 13.2787V13.3884C87.6958 13.2244 87.0825 12.9779 86.33 12.9779C84.8143 12.9779 83.2716 13.8106 83.2716 15.3676C83.2716 16.7888 84.5147 17.7029 85.9077 17.7029C86.974 17.7029 87.5602 17.2252 87.9282 16.6662H87.9824V17.4859H89.5134L89.5145 17.4835ZM86.1 16.297C85.581 16.297 84.8568 16.0375 84.8568 15.397C84.8568 14.5773 85.7591 14.2612 86.5376 14.2612C87.2346 14.2612 87.5613 14.411 87.986 14.6162C87.8645 15.5692 87.0589 16.2852 86.1 16.297V16.297ZM95.0852 10.711L93.2688 15.3121H93.2146L91.3298 10.711H89.6231L92.4491 17.1438L90.8367 20.7212H92.4892L96.845 10.711H95.0852Z" fill="#808285"/>
<path d="M5.35025 2.06851C4.76399 1.76964 4.46101 1.39896 3.1002 1.52318C2.65674 1.59457 2.13901 1.81526 1.71917 2.22033L12.0375 11.7339L15.8693 7.89474C11.6464 5.55211 5.52456 2.15737 5.35025 2.06851Z" fill="#4CAF50"/>
<path d="M21.016 12.2304C21.016 11.7197 20.8875 10.7729 19.8153 10.0841C19.8153 10.0841 18.1095 9.13748 15.8693 7.89474L12.0375 11.7339L16.7039 16.0365L19.2105 14.6539C20.1119 14.1249 20.946 13.6229 21.016 12.2304Z" fill="#FFC107"/>
<path d="M3.3507 22.8746C4.40532 22.9844 5.3879 22.3058 6.32179 21.763L16.7039 16.0365L12.0375 11.7339L1.68375 22.1075C2.07948 22.4715 2.63541 22.8002 3.3507 22.8746Z" fill="#F44336"/>
<path d="M0.924766 20.6605C1.02205 21.2888 1.16017 21.4557 1.34434 21.7434C1.44001 21.8634 1.55316 21.9873 1.68375 22.1075L12.0375 11.7339L1.71917 2.22033C1.29732 2.62733 0.974308 3.22047 0.924766 4.03532C0.830542 5.16307 0.875803 7.18959 0.884086 9.27376C0.898013 12.778 0.931222 16.6149 0.924766 17.8545C0.918486 19.0602 0.876057 19.9363 0.924766 20.6605Z" fill="#2196F3"/>
</g>
<defs>
<clipPath id="clip0_22_3069">
<rect width="95.9787" height="23.3804" fill="white" transform="translate(0.865967 0.89856)"/>
</clipPath>
</defs>
</svg>
