<svg width="26" height="26" viewBox="0 0 26 26" fill="none" xmlns="http://www.w3.org/2000/svg">
<path d="M21.4853 4.51472C26.1716 9.20101 26.1716 16.7989 21.4853 21.4852C16.799 26.1716 9.201 26.1716 4.51473 21.4852C-0.171576 16.7989 -0.171576 9.20099 4.51473 4.51472C9.20103 -0.171573 16.799 -0.171573 21.4853 4.51472Z" stroke="#1F1F2C" stroke-width="2" stroke-linecap="round" stroke-linejoin="round"/>
<path d="M15.6518 8.09853C17.1165 9.56325 17.1165 11.938 15.6518 13.4028C14.1872 14.8675 11.8123 14.8675 10.3475 13.4028C8.88285 11.938 8.88285 9.56325 10.3475 8.09853C11.8123 6.63382 14.1872 6.63382 15.6518 8.09853Z" stroke="#1F1F2C" stroke-width="2" stroke-linecap="round" stroke-linejoin="round"/>
<path d="M20.6093 22.2773C18.696 20.2627 15.9973 19 13 19C10.0026 19 7.30396 20.2627 5.39062 22.2787" stroke="#1F1F2C" stroke-width="2" stroke-linecap="round" stroke-linejoin="round"/>
</svg>
