<svg width="26" height="26" viewBox="0 0 26 26" fill="none" xmlns="http://www.w3.org/2000/svg">
<path d="M21.4853 4.51472C26.1716 9.20101 26.1716 16.7989 21.4853 21.4852C16.799 26.1716 9.201 26.1716 4.51473 21.4852C-0.171576 16.7989 -0.171576 9.20099 4.51473 4.51472C9.20103 -0.171573 16.799 -0.171573 21.4853 4.51472Z" fill="#1F1F2C" stroke="#1F1F2C" stroke-width="1.5" stroke-linecap="round" stroke-linejoin="round"/>
<path d="M15.546 8.05441C16.9519 9.46029 16.9519 11.7397 15.546 13.1456C14.1402 14.5515 11.8608 14.5515 10.4548 13.1456C9.04892 11.7397 9.04892 9.46029 10.4548 8.05441C11.8608 6.64853 14.1402 6.64853 15.546 8.05441Z" stroke="white" stroke-width="1.5" stroke-linecap="round" stroke-linejoin="round"/>
<path d="M19.9811 21.249C18.1706 19.7743 15.6172 18.85 12.7811 18.85C9.94496 18.85 7.39146 19.7743 5.58105 21.25" stroke="white" stroke-width="1.5" stroke-linecap="round" stroke-linejoin="round"/>
</svg>
