<svg width="24" height="24" viewBox="0 0 24 24" fill="none" xmlns="http://www.w3.org/2000/svg">
<path d="M19.9 20.9766L13.325 14.4016C12.825 14.8349 12.2417 15.1724 11.575 15.4141C10.9083 15.6557 10.2 15.7766 9.45 15.7766C7.65 15.7766 6.125 15.1516 4.875 13.9016C3.625 12.6516 3 11.1432 3 9.37656C3 7.6099 3.625 6.10156 4.875 4.85156C6.125 3.60156 7.64167 2.97656 9.425 2.97656C11.1917 2.97656 12.6958 3.60156 13.9375 4.85156C15.1792 6.10156 15.8 7.6099 15.8 9.37656C15.8 10.0932 15.6833 10.7849 15.45 11.4516C15.2167 12.1182 14.8667 12.7432 14.4 13.3266L21 19.8766L19.9 20.9766ZM9.425 14.2766C10.775 14.2766 11.925 13.7974 12.875 12.8391C13.825 11.8807 14.3 10.7266 14.3 9.37656C14.3 8.02656 13.825 6.8724 12.875 5.91406C11.925 4.95573 10.775 4.47656 9.425 4.47656C8.05833 4.47656 6.89583 4.95573 5.9375 5.91406C4.97917 6.8724 4.5 8.02656 4.5 9.37656C4.5 10.7266 4.97917 11.8807 5.9375 12.8391C6.89583 13.7974 8.05833 14.2766 9.425 14.2766Z" fill="#A7A7A7"/>
</svg>
