<?xml version="1.0" encoding="utf-8"?>
<!-- Generator: Adobe Illustrator 21.1.0, SVG Export Plug-In . SVG Version: 6.00 Build 0)  -->
<svg version="1.1" id="Layer_1" xmlns="http://www.w3.org/2000/svg" xmlns:xlink="http://www.w3.org/1999/xlink" x="0px" y="0px"
	 viewBox="0 0 110 110" style="enable-background:new 0 0 110 110;" xml:space="preserve">
<style type="text/css">
	.st0{fill:none;stroke:#000000;stroke-width:3;stroke-miterlimit:10;}
</style>
<polyline class="st0" points="60,60 50,60 50,50 60,50 "/>
<polyline class="st0" points="40,60 40,50 40,40 70,40 70,70 60,70 "/>
<polyline class="st0" points="50,80 30,80 30,30 80,30 80,40 "/>
<polyline class="st0" points="80,60 80,80 70,80 "/>
<polyline class="st0" points="20,30 20,20 80,20 "/>
<polyline class="st0" points="30,90 20,90 20,40 "/>
<polyline class="st0" points="90,30 90,70 90,80 90,90 40,90 "/>
<polyline class="st0" points="70,10 100,10 100,60 "/>
<line class="st0" x1="40" y1="10" x2="60" y2="10"/>
<polyline class="st0" points="10,20 10,10 30,10 "/>
<line class="st0" x1="10" y1="70" x2="10" y2="30"/>
<polyline class="st0" points="30,100 10,100 10,80 "/>
<line class="st0" x1="60" y1="100" x2="40" y2="100"/>
<line class="st0" x1="80" y1="100" x2="70" y2="100"/>
<line class="st0" x1="50" y1="70" x2="40" y2="70"/>
<polyline class="st0" points="100,80 100,100 90,100 "/>
</svg>
