<svg width="16" height="16" viewBox="0 0 16 16" fill="none" xmlns="http://www.w3.org/2000/svg">
<path fill-rule="evenodd" clip-rule="evenodd" d="M3.52876 7.52876C3.78911 7.26841 4.21122 7.26841 4.47157 7.52876L7.13823 10.1954C7.39858 10.4558 7.39858 10.8779 7.13823 11.1382C6.87788 11.3986 6.45577 11.3986 6.19542 11.1382L3.52876 8.47157C3.26841 8.21122 3.26841 7.78911 3.52876 7.52876Z" fill="#76768C"/>
<path fill-rule="evenodd" clip-rule="evenodd" d="M12.4714 4.86177C12.7318 5.12212 12.7318 5.54423 12.4714 5.80457L7.13807 11.1379C6.87772 11.3983 6.45561 11.3983 6.19526 11.1379C5.93491 10.8776 5.93491 10.4554 6.19526 10.1951L11.5286 4.86177C11.7889 4.60142 12.2111 4.60142 12.4714 4.86177Z" fill="#76768C"/>
</svg>
