<svg width="24" height="24" viewBox="0 0 24 24" fill="none" xmlns="http://www.w3.org/2000/svg">
<path d="M0 12C0 5.37258 5.37258 0 12 0C18.6274 0 24 5.37258 24 12C24 18.6274 18.6274 24 12 24C9.93021 24 7.98091 23.4754 6.2799 22.5514L1.33855 23.9566C0.547317 24.1816 -0.183617 23.4506 0.0413849 22.6594L1.44689 17.717C0.523986 16.0167 0 14.0685 0 12ZM7.2 9.75C7.2 10.1642 7.53579 10.5 7.95 10.5H16.05C16.4642 10.5 16.8 10.1642 16.8 9.75C16.8 9.33579 16.4642 9 16.05 9H7.95C7.53579 9 7.2 9.33579 7.2 9.75ZM7.95 13.5C7.53579 13.5 7.2 13.8358 7.2 14.25C7.2 14.6642 7.53579 15 7.95 15H13.65C14.0642 15 14.4 14.6642 14.4 14.25C14.4 13.8358 14.0642 13.5 13.65 13.5H7.95Z" fill="#1F1F2C"/>
</svg>
