<svg width="24" height="24" viewBox="0 0 24 24" fill="none" xmlns="http://www.w3.org/2000/svg">
<g clip-path="url(#clip0_302_2)">
<path d="M12.0001 1.7561C6.34266 1.7561 1.75636 6.34245 1.75636 12C1.75636 13.8661 2.25466 15.6136 3.12496 17.119C3.2241 17.2905 3.24947 17.4949 3.1953 17.6854L1.95645 22.0418L6.31188 20.8032C6.50248 20.749 6.70691 20.7745 6.87843 20.8737C8.38449 21.745 10.1329 22.2439 12.0001 22.2439C17.6576 22.2439 22.2439 17.6576 22.2439 12C22.2439 6.34245 17.6576 1.7561 12.0001 1.7561ZM0.292969 12C0.292969 5.53423 5.53445 0.292686 12.0001 0.292686C18.4658 0.292686 23.7073 5.53423 23.7073 12C23.7073 18.4658 18.4658 23.7073 12.0001 23.7073C9.98085 23.7073 8.07912 23.1955 6.41962 22.294L1.59885 23.665C0.826931 23.8845 0.113832 23.1714 0.333344 22.3994L1.70455 17.5775C0.804169 15.9187 0.292969 14.0181 0.292969 12ZM7.31727 9.80488C7.31727 9.40077 7.64486 9.07317 8.04897 9.07317H15.9513C16.3554 9.07317 16.683 9.40077 16.683 9.80488C16.683 10.209 16.3554 10.5366 15.9513 10.5366H8.04897C7.64486 10.5366 7.31727 10.209 7.31727 9.80488ZM8.04897 13.4634C7.64486 13.4634 7.31727 13.791 7.31727 14.1951C7.31727 14.5992 7.64486 14.9268 8.04897 14.9268H13.6099C14.014 14.9268 14.3416 14.5992 14.3416 14.1951C14.3416 13.791 14.014 13.4634 13.6099 13.4634H8.04897Z" fill="#1F1F2C"/>
<path fill-rule="evenodd" clip-rule="evenodd" d="M12.0001 0.585366C5.69609 0.585366 0.585646 5.69587 0.585646 12C0.585646 13.9681 1.08408 15.8209 1.96178 17.4379L2.01871 17.5428L0.614859 22.4795C0.458064 23.0309 0.967424 23.5402 1.51879 23.3834L6.45441 21.9799L6.55932 22.0369C8.17702 22.9156 10.0309 23.4146 12.0001 23.4146C18.3042 23.4146 23.4146 18.3041 23.4146 12C23.4146 5.69587 18.3042 0.585366 12.0001 0.585366ZM0.000287049 12C0.000287049 5.37258 5.37281 0 12.0001 0C18.6275 0 24 5.37258 24 12C24 18.6274 18.6275 24 12.0001 24C9.97359 24 8.06182 23.4968 6.38566 22.608L1.67891 23.9465C0.686432 24.2287 -0.230405 23.3118 0.0518238 22.3194L1.39062 17.6114C0.50283 15.936 0.000287049 14.0253 0.000287049 12ZM1.46368 12C1.46368 6.1808 6.18102 1.46341 12.0001 1.46341C17.8193 1.46341 22.5366 6.1808 22.5366 12C22.5366 17.8192 17.8193 22.5366 12.0001 22.5366C10.0801 22.5366 8.28128 22.0234 6.73187 21.127C6.62896 21.0675 6.5063 21.0522 6.39194 21.0848L1.53125 22.467L2.91378 17.6053C2.94629 17.491 2.93106 17.3684 2.87158 17.2655C1.97622 15.7167 1.46368 13.9189 1.46368 12ZM12.0001 2.04878C6.5043 2.04878 2.04904 6.50409 2.04904 12C2.04904 13.8133 2.5331 15.5104 3.37835 16.9725C3.51714 17.2126 3.55267 17.4987 3.47681 17.7654L2.38165 21.6166L6.23183 20.5217C6.49867 20.4458 6.78487 20.4814 7.02499 20.6204C8.4877 21.4666 10.1858 21.9512 12.0001 21.9512C17.496 21.9512 21.9512 17.4959 21.9512 12C21.9512 6.50409 17.496 2.04878 12.0001 2.04878ZM8.04897 9.36585C7.80651 9.36585 7.60995 9.56241 7.60995 9.80488C7.60995 10.0473 7.80651 10.2439 8.04897 10.2439H15.9513C16.1938 10.2439 16.3903 10.0473 16.3903 9.80488C16.3903 9.56241 16.1938 9.36585 15.9513 9.36585H8.04897ZM7.02459 9.80488C7.02459 9.23912 7.48322 8.78049 8.04897 8.78049H15.9513C16.5171 8.78049 16.9757 9.23912 16.9757 9.80488C16.9757 10.3706 16.5171 10.8293 15.9513 10.8293H8.04897C7.48322 10.8293 7.02459 10.3706 7.02459 9.80488ZM7.02459 14.1951C7.02459 13.6294 7.48322 13.1707 8.04897 13.1707H13.6099C14.1756 13.1707 14.6343 13.6294 14.6343 14.1951C14.6343 14.7609 14.1756 15.2195 13.6099 15.2195H8.04897C7.48322 15.2195 7.02459 14.7609 7.02459 14.1951ZM8.04897 13.7561C7.80651 13.7561 7.60995 13.9527 7.60995 14.1951C7.60995 14.4376 7.80651 14.6341 8.04897 14.6341H13.6099C13.8523 14.6341 14.0489 14.4376 14.0489 14.1951C14.0489 13.9527 13.8523 13.7561 13.6099 13.7561H8.04897Z" fill="#1F1F2C"/>
<circle cx="20" cy="20" r="4" fill="white"/>
<circle cx="20" cy="20" r="2" fill="#FF3B30"/>
</g>
<defs>
<clipPath id="clip0_302_2">
<rect width="24" height="24" fill="white"/>
</clipPath>
</defs>
</svg>
