<svg width="32" height="28" viewBox="0 0 32 28" fill="none" xmlns="http://www.w3.org/2000/svg">
<path fill-rule="evenodd" clip-rule="evenodd" d="M17.502 27.4023C17.0119 27.7012 16.4111 28 16 28C15.5889 28 14.9881 27.7012 14.498 27.4023C5.67589 22.0235 0 15.7182 0 9.33831C0 3.82497 4.03162 0 9.09091 0C11.9155 0 14.1157 1.32465 15.5427 3.36853C15.5259 3.38984 15.5105 3.41281 15.497 3.43737L12.6153 8.65088C12.503 8.85406 12.5453 9.10781 12.7175 9.26355L18.0974 14.1302L14.8548 17.4826C14.6628 17.681 14.668 17.9976 14.8665 18.1896C15.065 18.3816 15.3816 18.3763 15.5735 18.1778L19.1756 14.4539C19.2698 14.3565 19.3204 14.225 19.3159 14.0896C19.3114 13.9542 19.2521 13.8264 19.1516 13.7355L13.6822 8.7878L16.3722 3.92112C16.4511 3.7783 16.4528 3.61364 16.3911 3.47526C17.8374 1.37088 20.0515 0 22.9249 0C27.9684 0 32 3.82497 32 9.33831C32 15.7182 26.3399 22.0235 17.502 27.4023Z" fill="#1F1F2C"/>
</svg>
