<svg width="26" height="24" viewBox="0 0 26 24" fill="none" xmlns="http://www.w3.org/2000/svg">
<path fill-rule="evenodd" clip-rule="evenodd" d="M13.0001 5.68863C12.119 5.68863 11.3257 5.13735 10.9934 4.29419C10.9944 4.29673 10.9937 4.29549 10.9912 4.29068C10.9757 4.26157 10.8906 4.10153 10.6827 3.85666C10.459 3.59306 10.148 3.29695 9.76056 3.03109C8.99612 2.50647 7.98446 2.12875 6.74335 2.26796C4.9294 2.47143 3.81158 3.35875 3.11881 4.43936C2.38146 5.58952 2.09934 7.01637 2.17986 8.15476C2.26434 9.34907 2.39679 10.2726 3.00944 11.4616C3.66147 12.727 4.92645 14.4168 7.52967 16.894C9.98873 19.234 11.7087 20.7565 12.8044 21.6738C12.8969 21.7513 12.9647 21.7613 13.0001 21.7613C13.0356 21.7613 13.1033 21.7513 13.1958 21.6738C14.2915 20.7565 16.0115 19.2339 18.4705 16.894C21.0737 14.4168 22.3387 12.727 22.9907 11.4616C23.6034 10.2726 23.7358 9.34907 23.8203 8.15476C23.9005 7.02115 23.6159 5.59425 22.8751 4.44149C22.1782 3.35707 21.0582 2.47085 19.2559 2.26785C18.2066 2.14967 17.1851 2.50074 16.3255 3.06691C15.9015 3.34615 15.5543 3.65459 15.3065 3.92483C15.0773 4.17488 15.0013 4.31702 14.9988 4.31566C14.9983 4.31537 15.0012 4.30833 15.0068 4.29419C14.6745 5.13735 13.8812 5.68864 13.0001 5.68863ZM11.5413 1.6118C12.3173 2.27241 12.8183 2.98868 13.0001 3.44993C13.1784 2.99737 13.7149 2.30477 14.507 1.65905C15.7029 0.684123 17.4817 -0.18394 19.4907 0.0423337C24.4511 0.60103 26.205 5.15373 25.9812 8.31793C25.7924 10.9874 25.3098 13.4293 19.9383 18.5407C17.4559 20.9029 15.7005 22.4582 14.5599 23.4132C13.6254 24.1956 12.3749 24.1956 11.4404 23.4132C10.2997 22.4583 8.54427 20.9029 6.06189 18.5407C0.690396 13.4293 0.207776 10.9874 0.0189587 8.31793C-0.204848 5.15373 1.52866 0.601031 6.50952 0.0423336C8.68306 -0.20147 10.4064 0.645642 11.5413 1.6118Z" fill="black"/>
</svg>
