<?xml version="1.0" standalone="no"?>
<!DOCTYPE svg PUBLIC "-//W3C//DTD SVG 1.1//EN" "http://www.w3.org/Graphics/SVG/1.1/DTD/svg11.dtd" >
<svg xmlns="http://www.w3.org/2000/svg" xmlns:xlink="http://www.w3.org/1999/xlink" version="1.1">
<metadata></metadata>
<defs>
<font id="supplymedium" horiz-adv-x="1269" >
<font-face units-per-em="2048" ascent="1638" descent="-410" />
<missing-glyph horiz-adv-x="500" />
<glyph horiz-adv-x="0" />
<glyph horiz-adv-x="682" />
<glyph unicode=" " />
<glyph unicode="!" d="M508 0v225h256v-225h-256zM512 680v754h246v-754l-62 -223h-123z" />
<glyph unicode="&#x22;" d="M338 1247v207h246v-207l-62 -213h-123zM686 1247v207h246v-207l-62 -213h-122z" />
<glyph unicode="#" d="M164 358l24 246h125l29 205h-137l24 246h146l53 379h250l-53 -379h114l54 379h249l-53 -379h117l-25 -246h-127l-28 -205h139l-25 -246h-149l-51 -358h-246l49 358h-117l-51 -358h-246l50 358h-115zM561 604h117l29 205h-117z" />
<glyph unicode="$" d="M164 401v72h246v-72q0 -56 35 -98t90 -53v416q-62 33 -104.5 58.5t-93 64.5t-81 78t-51.5 92.5t-21 113.5q0 147 97.5 245.5t253.5 113.5v206h204v-208q147 -20 246.5 -133.5t99.5 -264.5v-51h-245v51q0 48 -28.5 88t-72.5 58v-338q61 -34 107.5 -64t98 -74t84.5 -89 t55 -105.5t22 -126.5q0 -153 -104.5 -260t-262.5 -119v-207h-204v207q-156 12 -263.5 127t-107.5 272zM430 1073q0 -56 105 -121v232q-105 -21 -105 -111zM739 248q56 11 88.5 46.5t32.5 86.5q0 90 -121 172v-305z" />
<glyph unicode="%" d="M41 1161q0 114 79 193.5t193 79.5q113 0 192 -79.5t79 -193.5t-79 -193t-192 -79q-114 0 -193 79t-79 193zM164 0v336l696 852v246h246v-334l-696 -852v-248h-246zM246 1161q0 -28 19.5 -47.5t47.5 -19.5t47 19.5t19 47.5t-19 48t-47 20t-47.5 -20t-19.5 -48zM686 272 q0 114 79 193.5t193 79.5q113 0 192 -79.5t79 -193.5t-79 -193t-192 -79q-114 0 -193 79t-79 193zM891 272q0 -28 19.5 -47.5t47.5 -19.5t47 19.5t19 47.5t-19 48t-47 20t-47.5 -20t-19.5 -48z" />
<glyph unicode="&#x26;" d="M115 524l243 213q-106 165 -106 287q0 179 105 294.5t268 115.5q175 0 275 -128.5t93 -344.5l-295 -256q16 -18 84 -94t103 -119q26 73 26 143v16h246v-16q0 -197 -106 -359q106 -162 106 -276h-246q0 43 -34 98q-145 -98 -320 -98q-212 0 -327 136.5t-115 387.5z M360 412q10 -82 60.5 -124t136.5 -42q91 0 172 49q-191 214 -219 246zM498 1024q0 -53 47 -127l203 176q-10 55 -42.5 85t-80.5 30q-59 0 -93 -44t-34 -120z" />
<glyph unicode="'" d="M512 1247v207h246v-207l-62 -213h-123z" />
<glyph unicode="(" d="M328 184v1065q0 161 114.5 275t274.5 114h225v-245h-225q-60 0 -102 -42t-42 -102v-1065q0 -58 42.5 -100.5t101.5 -42.5h225v-248h-225q-160 0 -274.5 115t-114.5 276z" />
<glyph unicode=")" d="M328 41h225q60 0 101.5 42t41.5 101v1065q0 60 -41 102t-102 42h-225v245h225q161 0 275 -114t114 -275v-1065q0 -161 -114 -276t-275 -115h-225v248z" />
<glyph unicode="*" d="M281 1055l63 35l188 26l-188 27l-63 37l122 213l64 -37l117 -150l-72 176v72h246v-72l-72 -178l119 152l61 37l123 -213l-61 -37l-191 -27l191 -26l61 -35l-123 -213l-61 35l-119 151l72 -178v-72h-246v72l72 176l-117 -149l-64 -35z" />
<glyph unicode="+" d="M246 424v246h266v266h246v-266h266v-246h-266v-266h-246v266h-266z" />
<glyph unicode="," d="M418 -225l147 450h246l-49 -170l-234 -280h-110z" />
<glyph unicode="-" d="M246 424v246h778v-246h-778z" />
<glyph unicode="." d="M508 0v225h256v-225h-256z" />
<glyph unicode="/" d="M164 0v336l696 852v246h246v-334l-696 -852v-248h-246z" />
<glyph unicode="0" d="M164 391v653q0 161 114.5 275.5t274.5 114.5h164q163 0 276 -113.5t113 -276.5v-653q0 -161 -114 -276t-275 -115h-164q-160 0 -274.5 115.5t-114.5 275.5zM410 391q0 -59 42 -101t101 -42h164q28 0 55 10l-362 590v-457zM498 1178l362 -592v458q0 62 -41 103t-102 41 h-164q-28 0 -55 -10z" />
<glyph unicode="1" d="M164 0v246h348v895l-348 -205v285l364 213h230v-1188h348v-246h-594h-348z" />
<glyph unicode="2" d="M164 0v496l696 391v157q0 62 -41 103t-102 41h-164q-59 0 -101 -42t-42 -102v-92h-246v92q0 161 114.5 275.5t274.5 114.5h164q163 0 276 -113.5t113 -276.5v-303l-696 -391v-104h696v-246h-942z" />
<glyph unicode="3" horiz-adv-x="1228" d="M143 389v72h246v-72q0 -59 42.5 -101t100.5 -42h164q61 0 102.5 41.5t41.5 101.5v62q0 61 -41 102t-103 41h-143v246h143q61 0 102.5 41.5t41.5 101.5v61q0 62 -41 103t-103 41h-164q-59 0 -101 -42t-42 -102v-71h-246v71q0 161 114.5 275.5t274.5 114.5h164 q163 0 276 -113.5t113 -276.5v-61q0 -156 -104 -266q104 -110 104 -266v-62q0 -162 -113.5 -275.5t-275.5 -113.5h-164q-160 0 -274.5 114t-114.5 275z" />
<glyph unicode="4" d="M164 573v861h246v-615h256v492h245v-492h195v-246h-195v-573h-245v573h-502z" />
<glyph unicode="5" d="M164 389v21h246v-21q0 -59 42 -101t101 -42h164q61 0 102 41.5t41 101.5v53v170q0 60 -41.5 102t-101.5 42h-74l-233 -158h-246v836h246h563v-246h-563v-293l157 106h150q161 0 275 -114t114 -275v-190v-33q0 -162 -113.5 -275.5t-275.5 -113.5h-164q-160 0 -274.5 114 t-114.5 275z" />
<glyph unicode="6" d="M164 389v655q0 162 114 276t275 114h143h21q163 0 276 -113.5t113 -276.5v-51h-246v51q0 62 -41 103t-102 41h-62h-102q-60 0 -101.5 -41.5t-41.5 -102.5v-221l157 107h150q161 0 275 -114t114 -275v-105v-47q0 -162 -113.5 -275.5t-275.5 -113.5h-164q-160 0 -274.5 114 t-114.5 275zM410 389q0 -59 42 -101t101 -42h164q61 0 102 41.5t41 101.5v62v90q0 60 -41.5 101.5t-101.5 41.5h-74l-233 -158v-137z" />
<glyph unicode="7" d="M164 993v441h942v-498l-614 -635v-301h-246v399l614 635v154h-450v-195h-246z" />
<glyph unicode="8" d="M164 391v80q0 162 117 279q-97 112 -97 256v38q0 161 114.5 275.5t274.5 114.5h123q163 0 276 -113.5t113 -276.5v-38q0 -145 -96 -256q117 -117 117 -279v-80q0 -161 -114 -276t-275 -115h-164q-160 0 -274.5 115.5t-114.5 275.5zM410 391q0 -60 42.5 -103t100.5 -42 h164q60 0 101.5 42.5t41.5 102.5v80q0 61 -41 102t-102 41h-144h-20q-60 0 -101.5 -41.5t-41.5 -101.5v-80zM430 1006q0 -59 40 -102t97 -44h129q60 0 102 43t42 103v38q0 62 -41 103t-103 41h-123q-60 0 -101.5 -42t-41.5 -102v-38z" />
<glyph unicode="9" d="M164 389v51h246v-51q0 -60 41.5 -101.5t101.5 -41.5h61h103q61 0 102 41.5t41 101.5v221l-158 -106h-149q-160 0 -274.5 114t-114.5 275v104v47q0 162 114 276t275 114h164q161 0 275 -114.5t114 -275.5v-655q0 -162 -113.5 -275.5t-275.5 -113.5h-144h-20 q-161 0 -275 114t-114 275zM410 893q0 -59 42 -101t101 -42h74l233 157v137q0 60 -41.5 102t-101.5 42h-164q-60 0 -101.5 -41.5t-41.5 -102.5v-61v-90z" />
<glyph unicode=":" d="M508 0v225h256v-225h-256zM508 573v226h256v-226h-256z" />
<glyph unicode=";" d="M436 -225l148 450h245l-49 -170l-233 -280h-111zM573 573v226h256v-226h-256z" />
<glyph unicode="&#x3c;" d="M317 412v223l424 358h211v-245h-121l-266 -226l266 -225h121v-246h-211z" />
<glyph unicode="=" d="M246 250v246h778v-246h-778zM246 641v246h778v-246h-778z" />
<glyph unicode="&#x3e;" d="M317 51v246h123l265 225l-265 226h-123v245h213l422 -358v-223l-422 -361h-213z" />
<glyph unicode="?" d="M164 973v71q0 161 114.5 275.5t274.5 114.5h164q163 0 276 -113.5t113 -276.5v-249l-348 -220v-118h-246v254l348 219v114q0 62 -41 103t-102 41h-164q-59 0 -101 -42t-42 -102v-71h-246zM508 0v225h256v-225h-256z" />
<glyph unicode="@" d="M72 16v1049q0 161 114.5 275t274.5 114h348q163 0 276 -113t113 -276v-133v-881h-246v70l-102 -70h-70q-161 0 -275 114t-114 275v193q0 161 114 275t275 114h70l102 -70v113q0 61 -41 102t-102 41h-348q-60 0 -102 -41.5t-42 -101.5v-1049q0 -60 42.5 -101.5 t101.5 -41.5h428v-248h-428q-160 0 -274.5 115t-114.5 276zM637 440q0 -58 40 -99.5t97 -43.5l178 121v237l-178 121q-57 -2 -97 -43.5t-40 -99.5v-193z" />
<glyph unicode="A" d="M164 0v463l354 971h234l354 -971v-463h-246v291h-450v-291h-246zM453 537h364l-182 501z" />
<glyph unicode="B" d="M164 0v1434h246h266q163 0 276 -113.5t113 -276.5v-51q0 -136 -86 -243q127 -117 127 -289v-72q0 -162 -113.5 -275.5t-275.5 -113.5h-418h-135zM410 246h307q61 0 102 41.5t41 101.5v72q0 61 -41 102t-102 41h-307v-358zM410 850h266q61 0 102 41.5t41 101.5v51 q0 62 -41 103t-102 41h-266v-338z" />
<glyph unicode="C" d="M164 391v653q0 161 114.5 275.5t274.5 114.5h164q163 0 276 -113.5t113 -276.5v-112h-246v112q0 62 -41 103t-102 41h-164q-60 0 -101.5 -42t-41.5 -102v-653q0 -59 42 -101t101 -42h164q60 0 101.5 42t41.5 101v113h246v-113q0 -161 -114 -276t-275 -115h-164 q-160 0 -274.5 115.5t-114.5 275.5z" />
<glyph unicode="D" d="M164 0v1434h246h307q161 0 275 -114.5t114 -275.5v-653q0 -160 -114 -275.5t-275 -115.5h-410h-143zM410 248h307q60 0 101.5 42t41.5 101v653q0 60 -41 102t-102 42h-307v-940z" />
<glyph unicode="E" d="M164 0v629v559v246h942v-246h-696v-314h614v-245h-614v-383h696v-246h-942z" />
<glyph unicode="F" d="M164 0v803v631h942v-246h-696v-385h614v-246h-614v-557h-246z" />
<glyph unicode="G" d="M164 391v653q0 161 114.5 275.5t274.5 114.5h164q163 0 276 -113.5t113 -276.5v-112h-246v112q0 62 -41 103t-102 41h-164q-60 0 -101.5 -42t-41.5 -102v-653q0 -59 42 -101t101 -42h164q60 0 101.5 42t41.5 101v113v26h-276v246h522v-272v-113q0 -161 -114 -276 t-275 -115h-164q-160 0 -274.5 115.5t-114.5 275.5z" />
<glyph unicode="H" d="M164 0v881v553h246v-553h450v553h246v-799v-635h-246v635h-450v-635h-246z" />
<glyph unicode="I" d="M164 0v246h348v942h-348v246h594h348v-246h-348v-942h348v-246h-594h-348z" />
<glyph unicode="J" d="M164 391v195h246v-195q0 -59 42 -101t101 -42h164q60 0 101.5 42t41.5 101v797h-512v246h758v-246v-797q0 -160 -114 -275.5t-275 -115.5h-164q-161 0 -275 115t-114 276z" />
<glyph unicode="K" d="M164 0v1434h246v-594h41l366 594h289l-440 -717l440 -717h-289l-366 594h-41v-594h-246z" />
<glyph unicode="L" d="M164 0v1434h246v-1188h696v-246h-942z" />
<glyph unicode="M" d="M164 0v1434h239l232 -506l233 506h238v-1434h-246v872l-155 -335h-138l-157 335v-872h-246z" />
<glyph unicode="N" d="M164 0v1434h332l364 -967v967h246v-1434h-332l-364 967v-967h-246z" />
<glyph unicode="O" d="M164 391v653q0 161 114.5 275.5t274.5 114.5h164q163 0 276 -113.5t113 -276.5v-653q0 -161 -114 -276t-275 -115h-164q-160 0 -274.5 115.5t-114.5 275.5zM410 391q0 -59 42 -101t101 -42h164q60 0 101.5 42t41.5 101v653q0 62 -41 103t-102 41h-164q-60 0 -101.5 -42 t-41.5 -102v-653z" />
<glyph unicode="P" d="M164 0v1434h246h307q163 0 276 -113.5t113 -276.5v-122q0 -162 -113.5 -276t-275.5 -114h-307v-532h-246zM410 778h307q61 0 102 42t41 102v122q0 62 -41 103t-102 41h-307v-410z" />
<glyph unicode="Q" d="M164 391v653q0 161 114.5 275.5t274.5 114.5h164q163 0 276 -113.5t113 -276.5v-653q0 -93 -42 -175.5t-114 -137.5l156 -254l-215 -121l-182 297h-156q-160 0 -274.5 115.5t-114.5 275.5zM410 391q0 -59 42 -101t101 -42h164q60 0 101.5 42t41.5 101v653q0 62 -41 103 t-102 41h-164q-60 0 -101.5 -42t-41.5 -102v-653z" />
<glyph unicode="R" d="M164 0v1434h246h307q163 0 276 -113.5t113 -276.5v-122q0 -125 -70.5 -225t-183.5 -140l254 -557h-270l-242 532h-184v-532h-246zM410 778h307q61 0 102 42t41 102v122q0 62 -41 103t-102 41h-307v-410z" />
<glyph unicode="S" d="M164 401v72h246v-72q0 -65 45 -110t110 -45h137q70 0 114 38t44 97q0 52 -37.5 98t-97 82.5t-131.5 73t-144 79t-131.5 91t-97 117.5t-37.5 151q0 159 113.5 260t288.5 101h96q167 0 285 -118t118 -284v-51h-245v51q0 65 -46 110.5t-112 45.5h-96q-75 0 -115.5 -30.5 t-40.5 -84.5q0 -36 37.5 -71.5t97 -68.5t131.5 -70t144 -84t131.5 -101.5t97 -131.5t37.5 -165q0 -161 -116 -271t-288 -110h-137q-166 0 -283.5 117.5t-117.5 283.5z" />
<glyph unicode="T" d="M164 1188v246h594h348v-246h-348v-1188h-246v1188h-348z" />
<glyph unicode="U" d="M164 391v1043h246v-1043q0 -59 42 -101t101 -42h164q60 0 101.5 42t41.5 101v1043h246v-1043q0 -160 -114 -275.5t-275 -115.5h-164q-161 0 -275 115t-114 276z" />
<glyph unicode="V" d="M164 973v461h246v-418l225 -621l225 621v418h246v-461l-354 -973h-234z" />
<glyph unicode="W" d="M164 973v461h246v-398l39 -499l86 548h202l84 -548l39 499v398h246v-461l-125 -973h-197l-149 555l-148 -555h-198z" />
<glyph unicode="X" d="M164 0l336 717l-336 717h270l201 -428l201 428h270l-336 -717l336 -717h-270l-201 428l-201 -428h-270z" />
<glyph unicode="Y" d="M164 963v471h246v-383l223 -281l227 301v363h246v-447l-348 -457v-530h-246v530z" />
<glyph unicode="Z" d="M164 0v246l645 942h-645v246h942v-246l-641 -942h641v-246h-942z" />
<glyph unicode="[" d="M328 41v1597h614v-245h-369v-1352h369v-246h-614v246z" />
<glyph unicode="\" d="M164 1100v334h246v-246l696 -852v-336h-246v248z" />
<glyph unicode="]" d="M328 41h368v1352h-368v245h614v-1597v-246h-614v246z" />
<glyph unicode="^" d="M246 707v180l274 567h232l272 -567v-180h-246v122l-143 299l-143 -299v-122h-246z" />
<glyph unicode="_" d="M20 -47v-246h1229v246h-1229z" />
<glyph unicode="`" d="M184 1540h314l286 -311h-262z" />
<glyph unicode="a" d="M164 389v277q0 161 114.5 275t274.5 114h143l164 -111v111h246v-1055h-246v111l-164 -111h-143q-160 0 -274.5 114.5t-114.5 274.5zM410 389q0 -59 42 -101t101 -42h68l239 162v239l-239 162h-68q-59 0 -101 -41.5t-42 -101.5v-277z" />
<glyph unicode="b" d="M164 0v1454h246v-510l163 111h144q161 0 275 -114t114 -275v-277q0 -160 -114 -274.5t-275 -114.5h-144l-163 111v-111h-246zM410 408l239 -162h68q60 0 101.5 42t41.5 101v277q0 60 -41.5 101.5t-101.5 41.5h-68l-239 -162v-239z" />
<glyph unicode="c" d="M164 391v275q0 161 114.5 275t274.5 114h164q163 0 276 -113t113 -276v-21h-246v21q0 62 -41 102.5t-102 40.5h-164q-60 0 -101.5 -41.5t-41.5 -101.5v-275q0 -59 42 -101t101 -42h164q60 0 101.5 42t41.5 101v21h246v-21q0 -161 -114 -276t-275 -115h-164 q-160 0 -274.5 115.5t-114.5 275.5z" />
<glyph unicode="d" d="M164 389v277q0 161 114.5 275t274.5 114h143l164 -111v510h246v-1454h-246v111l-164 -111h-143q-160 0 -274.5 114.5t-114.5 274.5zM410 389q0 -59 42 -101t101 -42h68l239 162v239l-239 162h-68q-59 0 -101 -41.5t-42 -101.5v-277z" />
<glyph unicode="e" d="M164 391v275q0 161 114.5 275t274.5 114h164q159 0 271.5 -110t117.5 -269v-31v-127v-26h-696v-101q0 -59 42 -101t101 -42h164q60 0 101.5 42t41.5 101v21h246v-21q0 -161 -114 -276t-275 -115h-164q-160 0 -274.5 115.5t-114.5 275.5zM410 635h450v31q0 62 -41 102.5 t-102 40.5h-164q-60 0 -101.5 -41.5t-41.5 -101.5v-31z" />
<glyph unicode="f" d="M164 727v246h338v92q0 162 113.5 275.5t275.5 113.5h215v-246h-215q-60 0 -101.5 -41t-41.5 -102v-92h358v-246h-358v-727h-246v727h-338z" />
<glyph unicode="g" d="M164 389v277q0 161 114.5 275t274.5 114h143l164 -111v111h246v-1104q0 -161 -114 -276t-275 -115h-162q-161 0 -275 115t-114 276h246q0 -60 41.5 -102t101.5 -42h162q60 0 101.5 42t41.5 102v160l-164 -111h-143q-160 0 -274.5 114.5t-114.5 274.5zM410 389 q0 -59 42 -101t101 -42h68l239 162v239l-239 162h-68q-59 0 -101 -41.5t-42 -101.5v-277z" />
<glyph unicode="h" d="M164 0v1454h246v-510l163 111h144q161 0 275 -114t114 -275v-666h-246v666q0 60 -41.5 101.5t-101.5 41.5h-68l-239 -162v-647h-246z" />
<glyph unicode="i" d="M164 0v246h338v563h-338v246h584v-809h358v-246h-604h-338zM492 1219v225h256v-225h-256z" />
<glyph unicode="j" horiz-adv-x="1228" d="M164 20h246v-69q0 -60 42 -102t101 -42h164q59 0 101 42t42 102v858h-440v246h686v-1104q0 -161 -114.5 -276t-274.5 -115h-164q-161 0 -275 115t-114 276v69zM850 1219v225h256v-225h-256z" />
<glyph unicode="k" d="M164 0v1454h246v-809h149l258 410h289l-332 -527l332 -528h-289l-252 399h-155v-399h-246z" />
<glyph unicode="l" d="M164 0v246h338v962h-338v246h584v-1208h358v-246h-604h-338z" />
<glyph unicode="m" d="M113 0v1055h245v-129l142 129h8q170 0 223 -152l168 152h8q130 0 190 -85.5t60 -262.5v-707h-246v707v26l-153 -139v-594h-246v707v26l-154 -139v-594h-245z" />
<glyph unicode="n" d="M164 0v1055h246v-111l163 111h144q161 0 275 -114t114 -275v-666h-246v666q0 60 -41.5 101.5t-101.5 41.5h-68l-239 -162v-647h-246z" />
<glyph unicode="o" d="M164 389v277q0 161 114 275t275 114h164q163 0 276 -113t113 -276v-277q0 -161 -114 -275t-275 -114h-164q-161 0 -275 114t-114 275zM410 389q0 -60 41.5 -100.5t101.5 -40.5h164q60 0 101.5 40.5t41.5 100.5v277q0 62 -41 102.5t-102 40.5h-164q-60 0 -101.5 -41.5 t-41.5 -101.5v-277z" />
<glyph unicode="p" d="M164 -440v1495h246v-111l163 111h144q161 0 275 -114t114 -275v-277q0 -161 -114 -275t-275 -114h-144l-163 111v-551h-246zM410 408l239 -162h68q60 0 101.5 42t41.5 101v277q0 60 -41.5 101.5t-101.5 41.5h-68l-239 -162v-239z" />
<glyph unicode="q" d="M164 389v277q0 161 114.5 275t274.5 114h143l164 -111v111h246v-1495h-246v551l-164 -111h-143q-160 0 -274.5 114t-114.5 275zM410 389q0 -59 42 -101t101 -42h68l239 162v239l-239 162h-68q-59 0 -101 -41.5t-42 -101.5v-277z" />
<glyph unicode="r" d="M164 0v1055h246v-146l217 146h90q161 0 275 -114t114 -275v-72h-246v72q0 60 -41.5 101.5t-101.5 41.5h-15l-292 -197v-612h-246z" />
<glyph unicode="s" d="M164 324v30h246v-30q0 -35 31.5 -56.5t88.5 -21.5h218q112 0 112 67q0 36 -29.5 59.5t-77.5 33t-109 19.5t-125 18t-125 30t-109 54t-77.5 91t-29.5 140q0 133 97 215t251 82h197q146 0 247 -94t101 -232v-18h-246v18q0 34 -28.5 57t-73.5 23h-197q-102 0 -102 -61 q0 -26 23.5 -43t63 -25.5t90.5 -15t107.5 -15t113 -21t107.5 -37t90.5 -59t63 -92t23.5 -131.5q0 -139 -98.5 -224t-259.5 -85h-218q-158 0 -262 92t-104 232z" />
<glyph unicode="t" d="M164 809v246h317v266h246v-266h379v-246h-379v-420q0 -60 41.5 -101.5t101.5 -41.5h236v-246h-236q-161 0 -275 114t-114 275v420h-317z" />
<glyph unicode="u" d="M164 389v666h246v-666q0 -59 42 -101t101 -42h68l239 162v647h246v-1055h-246v111l-164 -111h-143q-160 0 -274.5 114t-114.5 275z" />
<glyph unicode="v" d="M164 588v467h246v-398l225 -372l225 372v398h246v-467l-356 -588h-228z" />
<glyph unicode="w" d="M164 588v467h246v-402l26 -245l101 473h198l99 -473l26 245v402h246v-467l-127 -588h-195l-149 446l-150 -446h-194z" />
<glyph unicode="x" d="M164 0l328 528l-328 527h289l182 -295l182 295h289l-326 -527l326 -528h-289l-182 295l-182 -295h-289z" />
<glyph unicode="y" d="M164 1055h260l201 -592l219 592h262l-549 -1495h-262l197 538z" />
<glyph unicode="z" d="M164 0v246l586 563h-586v246h942v-246l-584 -563h584v-246h-942z" />
<glyph unicode="{" d="M328 594v248q72 0 118 41t46 118v248q0 162 113.5 275.5t275.5 113.5h61v-245h-61q-60 0 -102 -41.5t-42 -102.5v-268q0 -155 -106 -264q106 -109 106 -264v-265q0 -60 42 -101.5t102 -41.5h61v-246h-61q-162 0 -275.5 113.5t-113.5 275.5v244q0 78 -46.5 120t-117.5 42z " />
<glyph unicode="|" d="M512 -205v1843h246v-1843h-246z" />
<glyph unicode="}" d="M307 45h62q61 0 102 41.5t41 101.5v265q0 155 106 264q-106 109 -106 264v268q0 62 -41 103t-102 41h-62v245h62q163 0 276 -113t113 -276v-248q0 -76 46.5 -117.5t117.5 -41.5v-248q-71 0 -117.5 -42t-46.5 -120v-244q0 -163 -113 -276t-276 -113h-62v246z" />
<glyph unicode="~" d="M178 518q33 103 130 172.5t229 63.5l172 -74q78 -13 108 61l232 -82q-34 -104 -131 -172.5t-230 -62.5l-172 74q-78 13 -108 -64z" />
<glyph unicode="&#xa0;" />
<glyph unicode="&#xa2;" d="M164 391v275q0 156 107 268.5t261 120.5v194h205v-194q155 -8 262 -120t107 -269v-21h-246v21q0 56 -34.5 95.5t-88.5 45.5v-557q53 8 88 47.5t35 93.5v21h246v-21q0 -156 -107.5 -269t-261.5 -122v-205h-205v205q-154 9 -261 122.5t-107 268.5zM410 391 q0 -54 34.5 -93.5t87.5 -47.5v557q-53 -6 -87.5 -46t-34.5 -95v-275z" />
<glyph unicode="&#xa3;" d="M164 0v246h143q61 0 102.5 41.5t41.5 101.5v135h-226v205h226v315q0 162 113.5 276t275.5 114h266v-246h-266q-60 0 -102 -41.5t-42 -102.5v-315h297v-205h-297v-135q0 -70 -26 -143h436v-246h-819h-123z" />
<glyph unicode="&#xa5;" d="M164 963v471h246v-383l223 -281l227 301v363h246v-447l-258 -340h172v-205h-262v-102h262v-205h-262v-135h-246v135h-260v205h260v102h-260v205h166z" />
<glyph unicode="&#xa8;" d="M313 1229v225h256v-225h-256zM702 1229v225h256v-225h-256z" />
<glyph unicode="&#xa9;" d="M123 457v342q0 204 142 335.5t370 131.5t369 -131.5t141 -335.5v-342q0 -203 -141 -335t-369 -132t-370 132t-142 335zM287 457q0 -135 93 -219t255 -84q161 0 253.5 84t92.5 219v342q0 136 -92.5 219.5t-253.5 83.5t-254.5 -84t-93.5 -219v-342zM389 575v107 q0 110 71 185t175 75t175 -75t71 -185v-2h-164v2q0 43 -22.5 69.5t-59.5 26.5q-36 0 -59 -27t-23 -69v-107q0 -42 23 -69t59 -27q37 0 59.5 26.5t22.5 69.5v3h164v-3q0 -109 -71 -184.5t-175 -75.5t-175 75t-71 185z" />
<glyph unicode="&#xab;" d="M113 412v223l424 358h211v-245h-121l-267 -226l267 -225h121v-246h-211zM709 412v223l327 278h121v-245h-31l-170 -146l170 -145h31v-246h-121z" />
<glyph unicode="&#xad;" d="M246 424v246h778v-246h-778z" />
<glyph unicode="&#xae;" d="M78 918q0 114 44 217t119 177.5t178 118.5t216 44q152 0 280 -74.5t202.5 -202.5t74.5 -280q0 -113 -44 -216.5t-118.5 -178t-177.5 -119t-217 -44.5q-151 0 -279.5 75t-203 203.5t-74.5 279.5zM242 918q0 -163 114.5 -278.5t278.5 -115.5q163 0 278 115.5t115 278.5 t-115 278t-278 115q-164 0 -278.5 -114.5t-114.5 -278.5zM438 682v494h164h51q88 0 148.5 -59.5t60.5 -147.5q0 -100 -76 -160l78 -127h-192l-49 80h-21v-80h-164zM602 926h51q19 0 32 13t13 30q0 19 -12.5 31t-32.5 12h-51v-86z" />
<glyph unicode="&#xb4;" d="M485 1229l287 311h313l-337 -311h-263z" />
<glyph unicode="&#xb8;" d="M465 -90l33 94v84h245v-111l-2 -6q111 -3 191 -86t80 -198t-82.5 -198t-196.5 -83h-254v246h244q18 0 30.5 13.5t12.5 31.5q0 20 -12 34.5t-31 14.5h-158z" />
<glyph unicode="&#xbb;" d="M113 131v246h30l172 145l-172 146h-30v245h120l330 -278v-223l-330 -281h-120zM522 51v246h121l266 225l-266 226h-121v245h211l424 -358v-223l-424 -361h-211z" />
<glyph unicode="&#x2c6;" horiz-adv-x="1280" d="M242 1229l276 311h236l276 -311h-291l-104 139l-105 -139h-288z" />
<glyph unicode="&#x2da;" d="M346 1518q0 120 85 204t206 84q120 0 204.5 -84t84.5 -204q0 -119 -84.5 -204t-204.5 -85q-121 0 -206 84.5t-85 204.5zM571 1518q0 -27 18.5 -45.5t47.5 -18.5q26 0 44.5 19t18.5 45q0 27 -18 45t-45 18q-29 0 -47.5 -17.5t-18.5 -45.5z" />
<glyph unicode="&#x2dc;" d="M201 1276q33 103 129.5 172t228.5 63l172 -73q79 -13 109 61l231 -82q-34 -105 -130.5 -173t-229.5 -62l-172 73q-39 6 -66 -7.5t-43 -55.5z" />
<glyph unicode="&#x2000;" horiz-adv-x="903" />
<glyph unicode="&#x2001;" horiz-adv-x="1806" />
<glyph unicode="&#x2002;" horiz-adv-x="903" />
<glyph unicode="&#x2003;" horiz-adv-x="1806" />
<glyph unicode="&#x2004;" horiz-adv-x="602" />
<glyph unicode="&#x2005;" horiz-adv-x="451" />
<glyph unicode="&#x2006;" horiz-adv-x="301" />
<glyph unicode="&#x2007;" horiz-adv-x="301" />
<glyph unicode="&#x2008;" horiz-adv-x="225" />
<glyph unicode="&#x2009;" horiz-adv-x="361" />
<glyph unicode="&#x200a;" horiz-adv-x="100" />
<glyph unicode="&#x2010;" d="M246 424v246h778v-246h-778z" />
<glyph unicode="&#x2011;" d="M246 424v246h778v-246h-778z" />
<glyph unicode="&#x2012;" d="M246 424v246h778v-246h-778z" />
<glyph unicode="&#x2013;" d="M123 424v246h1024v-246h-1024z" />
<glyph unicode="&#x2014;" d="M20 424h1229v246h-1229v-246z" />
<glyph unicode="&#x2018;" d="M449 1006l49 170l233 280h111l-148 -450h-245z" />
<glyph unicode="&#x2019;" d="M428 1004l147 450h246l-49 -170l-233 -280h-111z" />
<glyph unicode="&#x201a;" d="M418 -225l147 450h246l-49 -170l-234 -280h-110z" />
<glyph unicode="&#x201c;" d="M270 1006l49 170l234 280h111l-148 -450h-246zM637 1006l49 170l234 280h110l-147 -450h-246z" />
<glyph unicode="&#x201d;" d="M238 1004l147 450h246l-49 -170l-234 -280h-110zM606 1004l148 450h245l-49 -170l-233 -280h-111z" />
<glyph unicode="&#x201e;" d="M418 -225l147 450h246l-49 -170l-234 -280h-110z" />
<glyph unicode="&#x2026;" d="M154 0v225h256v-225h-256zM508 0v225h256v-225h-256zM860 0v225h256v-225h-256z" />
<glyph unicode="&#x202f;" horiz-adv-x="361" />
<glyph unicode="&#x2039;" d="M317 412v223l424 358h211v-245h-121l-266 -226l266 -225h121v-246h-211z" />
<glyph unicode="&#x203a;" d="M317 51v246h123l265 225l-265 226h-123v245h213l422 -358v-223l-422 -361h-213z" />
<glyph unicode="&#x205f;" horiz-adv-x="451" />
<glyph unicode="&#x20ac;" d="M164 432v205h123v72h-123v204h123v131q0 161 114.5 275.5t274.5 114.5h41q163 0 276 -113.5t113 -276.5v-20h-246v20q0 62 -41 103t-102 41h-41q-60 0 -102 -42t-42 -102v-131h256v-204h-256v-72h256v-205h-256v-41q0 -58 42.5 -100.5t101.5 -42.5h41q60 0 101.5 42 t41.5 101v21h246v-21q0 -161 -114 -276t-275 -115h-41q-160 0 -274.5 115.5t-114.5 275.5v41h-123z" />
<glyph unicode="&#x2122;" horiz-adv-x="2539" d="M164 1270v164h614v-164h-225v-543h-164v543h-225zM881 727v707h180l178 -361l178 361h180v-707h-163v401l-134 -268h-122l-134 268v-401h-163z" />
<glyph unicode="&#x25fc;" horiz-adv-x="1054" d="M0 0v1055h1055v-1055h-1055z" />
</font>
</defs>
</svg>
