<?xml version="1.0" standalone="no"?>
<!DOCTYPE svg PUBLIC "-//W3C//DTD SVG 1.1//EN" "http://www.w3.org/Graphics/SVG/1.1/DTD/svg11.dtd" >
<svg xmlns="http://www.w3.org/2000/svg" xmlns:xlink="http://www.w3.org/1999/xlink" version="1.1">
<metadata></metadata>
<defs>
<font id="supplyultralight" horiz-adv-x="1064" >
<font-face units-per-em="2048" ascent="1638" descent="-410" />
<missing-glyph horiz-adv-x="500" />
<glyph horiz-adv-x="0" />
<glyph horiz-adv-x="682" />
<glyph unicode=" " />
<glyph unicode="!" d="M481 0v102h103v-102h-103zM512 354v1080h41v-1080h-41z" />
<glyph unicode="&#x22;" d="M430 1004v450h41v-450h-41zM594 1004v450h41v-450h-41z" />
<glyph unicode="#" d="M164 471l4 41h149l56 389h-168l4 41h168l69 492h43l-69 -492h291l69 492h43l-69 -492h147l-4 -41h-149l-56 -389h168l-4 -41h-170l-68 -471h-38l65 471h-293l-67 -471h-39l65 471h-147zM358 512h293l56 389h-293z" />
<glyph unicode="$" d="M164 299v102h41v-102q0 -107 75.5 -182.5t182.5 -75.5h59v696q-155 127 -212 186q-125 133 -126 253q0 117 82.5 187.5t216.5 70.5h39v204h41v-204h17q125 0 213 -87.5t88 -211.5v-62h-41v62q0 107 -76.5 182.5t-183.5 75.5h-17v-635q61 -49 101.5 -84.5t89.5 -86.5 t78 -95.5t49 -100.5t20 -112q0 -119 -86 -199t-215 -80h-37v-205h-41v205h-59q-123 0 -211 88t-88 211zM225 1176q0 -34 10 -67t34 -67.5t46 -61.5t63 -64.5t67.5 -60.5t76.5 -64v602h-39q-117 0 -187.5 -59.5t-70.5 -157.5zM563 41h37q112 0 186 67.5t74 170.5 q0 60 -23 117t-69.5 112.5t-91.5 98t-113 98.5v-664z" />
<glyph unicode="%" d="M82 1243q0 80 55.5 135.5t134.5 55.5q78 0 133.5 -56t55.5 -135t-55.5 -134.5t-133.5 -55.5q-80 0 -135 55.5t-55 134.5zM123 1243q0 -61 43.5 -105t105.5 -44q61 0 104.5 43.5t43.5 105.5t-43.5 106t-104.5 44t-105 -44t-44 -106zM164 0v299l696 852v283h41v-299 l-696 -852v-283h-41zM604 190q0 80 56 135.5t135 55.5q78 0 133 -56t55 -135t-55 -134.5t-133 -55.5q-80 0 -135.5 55.5t-55.5 134.5zM645 190q0 -61 44 -105t106 -44q61 0 104 43.5t43 105.5t-43 106t-104 44t-105.5 -44t-44.5 -106z" />
<glyph unicode="&#x26;" d="M111 371l323 387q-186 256 -186 368q0 135 76 221.5t194 86.5q121 0 196.5 -89t73.5 -229l-301 -358q34 -45 121 -156.5t147 -193.5t103 -154q55 90 55 197v81h41v-81q0 -130 -73 -236q73 -130 73 -215h-41q0 72 -59 180q-68 -84 -169.5 -132t-213.5 -48q-158 0 -259 101 t-101 270zM150 354q7 -144 94.5 -228.5t226.5 -84.5q105 0 202.5 48t160.5 130q-41 69 -101.5 151t-147 193t-124.5 162zM289 1126q0 -100 174 -335l287 344q-4 116 -68.5 187t-163.5 71q-102 0 -165.5 -74t-63.5 -193z" />
<glyph unicode="'" d="M512 1004v450h41v-450h-41z" />
<glyph unicode="(" d="M287 82v1270q0 118 83.5 202t202.5 84h205v-41h-205q-103 0 -174 -71t-71 -174v-1270q0 -101 72 -173.5t173 -72.5h205v-43h-205q-118 0 -202 85t-84 204z" />
<glyph unicode=")" d="M287 -164h205q101 0 173 72.5t72 173.5v1270q0 103 -71 174t-174 71h-205v41h205q118 0 202 -84t84 -202v-1270q0 -119 -84 -204t-202 -85h-205v43z" />
<glyph unicode="*" d="M274 1042l70 41l145 84l-145 84l-70 41l21 37l70 -41l147 -84v250h41v-250l147 84l70 41l21 -37l-70 -41l-146 -84l146 -84l70 -41l-21 -36l-70 41l-147 83v-249h-41v249l-147 -83l-70 -41z" />
<glyph unicode="+" d="M246 526v41h266v267h41v-267h266v-41h-266v-266h-41v266h-266z" />
<glyph unicode="," d="M432 -246l117 348h41l-17 -102l-100 -246h-41z" />
<glyph unicode="-" d="M246 526v41h573v-41h-573z" />
<glyph unicode="." d="M481 0v102h103v-102h-103z" />
<glyph unicode="/" d="M164 0v299l696 852v283h41v-299l-696 -852v-283h-41z" />
<glyph unicode="0" d="M164 289v858q0 119 84 203t203 84h163q120 0 203.5 -83.5t83.5 -203.5v-858q0 -120 -84 -204.5t-203 -84.5h-163q-118 0 -202.5 85t-84.5 204zM205 289q0 -101 72.5 -173.5t173.5 -72.5h163q71 0 131.5 38.5t90.5 100.5l-625 1018q-6 -24 -6 -53v-858zM227 1251 l627 -1018q6 27 6 56v858q0 103 -71.5 174.5t-174.5 71.5h-163q-74 0 -134 -39t-90 -103z" />
<glyph unicode="1" d="M164 0v41h348v1352l-348 -174v45l340 170h49v-1393h348v-41h-389h-348z" />
<glyph unicode="2" d="M164 0v467l696 391v289q0 103 -71.5 174.5t-174.5 71.5h-163q-101 0 -173.5 -72.5t-72.5 -173.5v10h-41q5 116 88.5 196.5t198.5 80.5h163q120 0 203.5 -83.5t83.5 -203.5v-316l-696 -391v-399h696v-41h-737zM164 1147v10v-10z" />
<glyph unicode="3" d="M164 287v51h41v-51q0 -101 72.5 -173.5t173.5 -72.5h163q103 0 174.5 71.5t71.5 174.5v164q0 103 -71.5 174t-174.5 71h-122v41h122q103 0 174.5 71.5t71.5 174.5v164q0 103 -71.5 174.5t-174.5 71.5h-163q-101 0 -173.5 -72.5t-72.5 -173.5v-51h-41v51q0 119 84 203 t203 84h163q120 0 203.5 -83.5t83.5 -203.5v-164q0 -89 -49.5 -161t-128.5 -105q79 -33 128.5 -105t49.5 -161v-164q0 -120 -83.5 -203.5t-203.5 -83.5h-163q-119 0 -203 84t-84 203z" />
<glyph unicode="4" d="M164 676v758h41v-717h430v594h41v-594h225v-41h-225v-676h-41v676h-471z" />
<glyph unicode="5" d="M164 287v41h41v-41q0 -101 72.5 -173.5t173.5 -72.5h163q103 0 174.5 71.5t71.5 174.5v356q0 101 -72.5 173.5t-173.5 72.5h-118l-291 -197h-41v742h41h594v-41h-594v-650l276 187h133q118 0 202.5 -84t84.5 -203v-356q0 -120 -83.5 -203.5t-203.5 -83.5h-163 q-119 0 -203 84t-84 203z" />
<glyph unicode="6" d="M164 287v860q0 120 83.5 203.5t203.5 83.5h163q120 0 203.5 -83.5t83.5 -203.5v-62h-41v62q0 103 -71.5 174.5t-174.5 71.5h-163q-103 0 -174.5 -71.5t-71.5 -174.5v-469l276 190h133q119 0 203 -84t84 -202v-295q0 -120 -83.5 -203.5t-203.5 -83.5h-163q-119 0 -203 84 t-84 203zM205 287q0 -101 72.5 -173.5t173.5 -72.5h163q103 0 174.5 71.5t71.5 174.5v295q0 101 -72.5 173t-173.5 72h-118l-291 -200v-340z" />
<glyph unicode="7" d="M164 1126v308h737v-449l-614 -635v-350h-41v367l614 634v392h-655v-267h-41z" />
<glyph unicode="8" d="M164 289v203q0 93 53 166.5t139 103.5q-76 34 -124 106t-48 158v121q0 119 84 203t203 84h123q120 0 203.5 -83.5t83.5 -203.5v-121q0 -88 -47 -159t-123 -105q85 -30 137.5 -103t52.5 -167v-203q0 -120 -84 -204.5t-203 -84.5h-163q-118 0 -202.5 85t-84.5 204zM205 289 q0 -104 73 -177t173 -71h163q101 0 173.5 72.5t72.5 175.5v203q0 103 -71.5 174t-174.5 71h-143h-20q-103 0 -174.5 -71t-71.5 -174v-203zM225 1026q0 -102 70.5 -174t169.5 -74h129q101 0 173.5 72.5t72.5 175.5v121q0 103 -71.5 174.5t-174.5 71.5h-123 q-103 0 -174.5 -71.5t-71.5 -174.5v-121z" />
<glyph unicode="9" d="M164 287v61h41v-61q0 -103 71.5 -174.5t174.5 -71.5h163q103 0 174.5 71.5t71.5 174.5v469l-276 -191h-133q-119 0 -203 84.5t-84 202.5v295q0 120 83.5 203.5t203.5 83.5h163q118 0 202.5 -84t84.5 -203v-860q0 -120 -83.5 -203.5t-203.5 -83.5h-163q-120 0 -203.5 83.5 t-83.5 203.5zM205 852q0 -101 72.5 -173.5t173.5 -72.5h118l291 201v340q0 101 -72.5 173.5t-173.5 72.5h-163q-103 0 -174.5 -71.5t-71.5 -174.5v-295z" />
<glyph unicode=":" d="M481 0v102h103v-102h-103zM481 573v103h103v-103h-103z" />
<glyph unicode=";" d="M408 -246l116 348h41l-16 -102l-100 -246h-41zM524 573v103h103v-103h-103z" />
<glyph unicode="&#x3c;" d="M276 457v131l359 303h153v-41h-139l-332 -281v-94l332 -280h139v-41h-153z" />
<glyph unicode="=" d="M246 373v41h573v-41h-573zM246 723v41h573v-41h-573z" />
<glyph unicode="&#x3e;" d="M276 154v41h140l332 280v94l-332 281h-140v41h154l358 -303v-131l-358 -303h-154z" />
<glyph unicode="?" d="M164 1034v113q0 119 84 203t203 84h163q120 0 203.5 -83.5t83.5 -203.5v-297l-348 -219v-277h-41v299l348 219v275q0 103 -71.5 174.5t-174.5 71.5h-163q-101 0 -173.5 -72.5t-72.5 -173.5v-113h-41zM481 0v102h103v-102h-103z" />
<glyph unicode="@" d="M123 16v1049q0 119 84.5 203t202.5 84h245q120 0 203.5 -83.5t83.5 -203.5v-215v-688h-41v162l-235 -162h-39q-119 0 -203 84t-84 203v184q0 119 84 203t203 84h39l235 -160v110v195q0 103 -71.5 174.5t-174.5 71.5h-245q-103 0 -174.5 -71.5t-71.5 -174.5v-1049 q0 -101 72.5 -173t173.5 -72h346v-43h-346q-118 0 -202.5 84.5t-84.5 203.5zM381 449q0 -108 81.5 -182t190.5 -62l248 168v338l-248 166q-109 12 -190.5 -62t-81.5 -182v-184z" />
<glyph unicode="A" d="M164 0v465l323 969h91l323 -969v-465h-41v428h-655v-428h-41zM209 469h647l-307 924h-33z" />
<glyph unicode="B" d="M164 0v1434h41h368q120 0 203.5 -83.5t83.5 -203.5v-123q0 -85 -44.5 -154.5t-117.5 -103.5q91 -28 147 -102.5t56 -171.5v-205q0 -120 -83.5 -203.5t-203.5 -83.5h-417h-33zM205 41h409q103 0 174.5 71.5t71.5 174.5v205q0 103 -71.5 174t-174.5 71h-409v-696zM205 778 h368q103 0 174.5 71.5t71.5 174.5v123q0 103 -71.5 174.5t-174.5 71.5h-368v-615z" />
<glyph unicode="C" d="M164 289v858q0 119 84 203t203 84h163q120 0 203.5 -83.5t83.5 -203.5v-113h-41v113q0 103 -71.5 174.5t-174.5 71.5h-163q-103 0 -174.5 -71.5t-71.5 -174.5v-858q0 -101 72.5 -173.5t173.5 -72.5h163q101 0 173.5 72.5t72.5 173.5v112h41v-112q0 -120 -84 -204.5 t-203 -84.5h-163q-118 0 -202.5 85t-84.5 204z" />
<glyph unicode="D" d="M164 0v1434h450q118 0 202.5 -84t84.5 -203v-858q0 -119 -84.5 -204t-202.5 -85h-450zM205 43h409q101 0 173.5 72.5t72.5 173.5v858q0 103 -71.5 174.5t-174.5 71.5h-409v-1350z" />
<glyph unicode="E" d="M164 0v752v641v41h737v-41h-696v-600h614v-41h-614v-711h696v-41h-737z" />
<glyph unicode="F" d="M164 0v752v682h737v-41h-696v-641h614v-41h-614v-711h-41z" />
<glyph unicode="G" d="M164 289v858q0 119 84 203t203 84h163q120 0 203.5 -83.5t83.5 -203.5v-113h-41v113q0 103 -71.5 174.5t-174.5 71.5h-163q-103 0 -174.5 -71.5t-71.5 -174.5v-858q0 -101 72.5 -173.5t173.5 -72.5h163q101 0 173.5 72.5t72.5 173.5v379h-307v41h348v-308v-112 q0 -120 -84 -204.5t-203 -84.5h-163q-118 0 -202.5 85t-84.5 204z" />
<glyph unicode="H" d="M164 0v758v676h41v-676h655v676h41v-717v-717h-41v717h-655v-717h-41z" />
<glyph unicode="I" d="M164 0v41h348v1352h-348v41h389h348v-41h-348v-1352h348v-41h-389h-348z" />
<glyph unicode="J" d="M164 289v92h41v-92q0 -101 72.5 -173.5t173.5 -72.5h163q101 0 173.5 72.5t72.5 173.5v1104h-532v41h573v-41v-1104q0 -119 -84.5 -204t-202.5 -85h-163q-119 0 -203 84.5t-84 204.5z" />
<glyph unicode="K" d="M164 0v1434h41v-697h219l428 697h49l-440 -717l440 -717h-49l-428 696h-219v-696h-41z" />
<glyph unicode="L" d="M164 0v1434h41v-1393h696v-41h-737z" />
<glyph unicode="M" d="M164 0v1434h104l264 -695l265 695h104v-1434h-41v1393h-35l-274 -719h-37l-274 719h-35v-1393h-41z" />
<glyph unicode="N" d="M164 0v1434h158l450 -1393h88v1393h41v-1434h-158l-450 1393h-88v-1393h-41z" />
<glyph unicode="O" d="M164 289v858q0 119 84 203t203 84h163q120 0 203.5 -83.5t83.5 -203.5v-858q0 -120 -84 -204.5t-203 -84.5h-163q-118 0 -202.5 85t-84.5 204zM205 289q0 -101 72.5 -173.5t173.5 -72.5h163q101 0 173.5 72.5t72.5 173.5v858q0 103 -71.5 174.5t-174.5 71.5h-163 q-103 0 -174.5 -71.5t-71.5 -174.5v-858z" />
<glyph unicode="P" d="M164 0v1434h450q120 0 203.5 -83.5t83.5 -203.5v-123q0 -120 -83.5 -203.5t-203.5 -83.5h-409v-737h-41zM205 778h409q103 0 174.5 71.5t71.5 174.5v123q0 103 -71.5 174.5t-174.5 71.5h-409v-615z" />
<glyph unicode="Q" d="M164 289v858q0 119 84 203t203 84h163q120 0 203.5 -83.5t83.5 -203.5v-858q0 -79 -39 -146t-104 -104l143 -234l-37 -20l-145 235q-47 -20 -105 -20h-163q-118 0 -202.5 85t-84.5 204zM205 289q0 -101 72.5 -173.5t173.5 -72.5h163q101 0 173.5 72.5t72.5 173.5v858 q0 103 -71.5 174.5t-174.5 71.5h-163q-103 0 -174.5 -71.5t-71.5 -174.5v-858z" />
<glyph unicode="R" d="M164 0v1434h450q120 0 203.5 -83.5t83.5 -203.5v-123q0 -120 -83.5 -203.5t-203.5 -83.5h-49l336 -737h-45l-336 737h-315v-737h-41zM205 778h409q103 0 174.5 71.5t71.5 174.5v123q0 103 -71.5 174.5t-174.5 71.5h-409v-615z" />
<glyph unicode="S" d="M164 299v102h41v-102q0 -107 75.5 -182.5t182.5 -75.5h137q112 0 186 67.5t74 170.5q0 73 -37.5 145.5t-97 133t-131.5 120.5t-144 119t-131.5 117.5t-97 126t-37.5 135.5q0 117 82.5 187.5t216.5 70.5h97q125 0 213 -87.5t88 -211.5v-62h-41v62q0 107 -76.5 182.5 t-183.5 75.5h-97q-117 0 -187.5 -59.5t-70.5 -157.5q0 -62 37.5 -125t97 -119t131.5 -114.5t144 -120t131.5 -124.5t97 -139.5t37.5 -154.5q0 -119 -86 -199t-215 -80h-137q-123 0 -211 88t-88 211z" />
<glyph unicode="T" d="M164 1393v41h389h348v-41h-348v-1393h-41v1393h-348z" />
<glyph unicode="U" d="M164 289v1145h41v-1145q0 -101 72.5 -173.5t173.5 -72.5h163q101 0 173.5 72.5t72.5 173.5v1145h41v-1145q0 -119 -84.5 -204t-202.5 -85h-163q-119 0 -203 84.5t-84 204.5z" />
<glyph unicode="V" d="M164 969v465h41v-457l311 -936h33l311 936v457h41v-465l-323 -969h-91z" />
<glyph unicode="W" d="M164 969v465h41v-459l108 -934h21l170 922h57l170 -922h21l108 934v459h41v-465l-113 -969h-90l-166 893l-165 -893h-91z" />
<glyph unicode="X" d="M164 0l346 717l-346 717h45l323 -670l324 670h45l-346 -717l346 -717h-45l-324 670l-323 -670h-45z" />
<glyph unicode="Y" d="M164 969v465h41v-449l325 -407h2l328 428v428h41v-441l-348 -456v-537h-41v537z" />
<glyph unicode="Z" d="M164 0v41l692 1352h-692v41h737v-41l-688 -1352h688v-41h-737z" />
<glyph unicode="[" d="M287 -205v1802v41h491v-41h-450v-1761h450v-41h-491z" />
<glyph unicode="\" d="M164 1135v299h41v-283l696 -852v-299h-41v283z" />
<glyph unicode="]" d="M287 -164h450v1761h-450v41h491v-1802v-41h-491v41z" />
<glyph unicode="^" d="M246 799v223l231 432h111l231 -432v-223h-41v213l-215 401h-61l-215 -401v-213h-41z" />
<glyph unicode="_" d="M20 -150v-40h1024v40h-1024z" />
<glyph unicode="`" d="M281 1540h61l270 -311h-41z" />
<glyph unicode="a" d="M164 287v471q0 118 84 202t203 84h174l235 -159v159h41v-1044h-41v160l-235 -160h-174q-119 0 -203 84t-84 203zM205 287q0 -101 72.5 -173.5t173.5 -72.5h159l250 170v623l-250 170h-159q-101 0 -173.5 -72.5t-72.5 -173.5v-471z" />
<glyph unicode="b" d="M164 0v1454h41v-569l235 159h174q119 0 203 -84t84 -202v-471q0 -119 -84.5 -203t-202.5 -84h-174l-235 160v-160h-41zM205 211l250 -170h159q101 0 173.5 72.5t72.5 173.5v471q0 101 -72.5 173.5t-173.5 72.5h-159l-250 -170v-623z" />
<glyph unicode="c" d="M164 289v469q0 118 84 202t203 84h163q120 0 203.5 -83t83.5 -203v-41h-41v41q0 103 -71.5 174.5t-174.5 71.5h-163q-103 0 -174.5 -71.5t-71.5 -174.5v-469q0 -101 72.5 -173.5t173.5 -72.5h163q101 0 173.5 72.5t72.5 173.5v41h41v-41q0 -120 -84 -204.5t-203 -84.5 h-163q-118 0 -202.5 85t-84.5 204z" />
<glyph unicode="d" d="M164 287v471q0 118 84 202t203 84h174l235 -159v569h41v-1454h-41v160l-235 -160h-174q-119 0 -203 84t-84 203zM205 287q0 -101 72.5 -173.5t173.5 -72.5h159l250 170v623l-250 170h-159q-101 0 -173.5 -72.5t-72.5 -173.5v-471z" />
<glyph unicode="e" d="M164 289v469q0 118 84 202t203 84h163q120 0 203.5 -83t83.5 -203v-41v-158h-20v-2h-676v-268q0 -101 72.5 -173.5t173.5 -72.5h163q101 0 173.5 72.5t72.5 173.5v41h41v-41q0 -120 -84 -204.5t-203 -84.5h-163q-118 0 -202.5 85t-84.5 204zM205 598h655v160 q0 103 -71.5 174.5t-174.5 71.5h-163q-103 0 -174.5 -71.5t-71.5 -174.5v-160z" />
<glyph unicode="f" d="M164 901v41h338v225q0 120 83 203.5t203 83.5h113v-41h-113q-103 0 -174 -71.5t-71 -174.5v-225h358v-41h-358v-901h-41v901h-338z" />
<glyph unicode="g" d="M164 -141h41q0 -101 72.5 -173.5t173.5 -72.5h163q101 0 173.5 72.5t72.5 173.5v301l-235 -160h-174q-119 0 -203 84t-84 203v471q0 118 84 202t203 84h174l235 -159v159h41v-1185q0 -120 -84 -204.5t-203 -84.5h-163q-118 0 -202.5 85t-84.5 204zM205 287 q0 -101 72.5 -173.5t173.5 -72.5h159l250 170v623l-250 170h-159q-101 0 -173.5 -72.5t-72.5 -173.5v-471z" />
<glyph unicode="h" d="M164 0v1454h41v-571l235 161h174q119 0 203 -84t84 -202v-758h-41v758q0 101 -72.5 173.5t-173.5 72.5h-159l-250 -173v-831h-41z" />
<glyph unicode="i" d="M164 0v41h338v963h-338v40h379v-1003h358v-41h-399h-338zM440 1290v103h103v-103h-103z" />
<glyph unicode="j" d="M164 0h41v-141q0 -101 72.5 -173.5t173.5 -72.5h163q101 0 173.5 72.5t72.5 173.5v1145h-481v40h522v-1185q0 -119 -84.5 -204t-202.5 -85h-163q-119 0 -203 84.5t-84 204.5v141zM799 1290v103h102v-103h-102z" />
<glyph unicode="k" d="M164 0v1454h41v-911h315l332 501h49l-346 -522l346 -522h-49l-332 502h-315v-502h-41z" />
<glyph unicode="l" d="M164 0v41h338v1372h-338v41h379v-1413h358v-41h-399h-338z" />
<glyph unicode="m" d="M123 0v1044h41v-126l112 126h35q77 0 133.5 -41.5t83.5 -111.5l138 153h34q112 0 177 -81.5t65 -204.5v-758h-41v758q0 106 -53 176t-148 70h-16l-141 -158q10 -48 10 -88v-758h-41v758q0 106 -53 176t-148 70h-16l-131 -148v-856h-41z" />
<glyph unicode="n" d="M164 0v1044h41v-161l235 161h174q119 0 203 -84t84 -202v-758h-41v758q0 101 -72.5 173.5t-173.5 72.5h-159l-250 -173v-831h-41z" />
<glyph unicode="o" d="M164 289v469q0 118 84 202t203 84h163q120 0 203.5 -83t83.5 -203v-469q0 -120 -84 -204.5t-203 -84.5h-163q-118 0 -202.5 85t-84.5 204zM205 289q0 -101 72.5 -173.5t173.5 -72.5h163q101 0 173.5 72.5t72.5 173.5v469q0 103 -71.5 174.5t-174.5 71.5h-163 q-103 0 -174.5 -71.5t-71.5 -174.5v-469z" />
<glyph unicode="p" d="M164 -430v1474h41v-159l235 159h174q119 0 203 -84t84 -202v-471q0 -119 -84.5 -203t-202.5 -84h-174l-235 160v-590h-41zM205 211l250 -170h159q101 0 173.5 72.5t72.5 173.5v471q0 101 -72.5 173.5t-173.5 72.5h-159l-250 -170v-623z" />
<glyph unicode="q" d="M164 287v471q0 118 84 202t203 84h174l235 -159v159h41v-1474h-41v590l-235 -160h-174q-119 0 -203 84t-84 203zM205 287q0 -101 72.5 -173.5t173.5 -72.5h159l250 170v623l-250 170h-159q-101 0 -173.5 -72.5t-72.5 -173.5v-471z" />
<glyph unicode="r" d="M164 0v1044h41v-235l350 235h59q119 0 203 -84t84 -202v-62h-41v62q0 101 -72.5 173.5t-173.5 72.5h-45l-364 -242v-762h-41z" />
<glyph unicode="s" d="M164 221v103h41v-103q0 -70 74.5 -125t169.5 -55h165q117 0 181.5 54.5t64.5 152.5q0 80 -37.5 136.5t-97 86.5t-131.5 51.5t-144 41.5t-131.5 47t-97 76.5t-37.5 121.5q0 106 77.5 170.5t203.5 64.5h129q109 0 187.5 -66t78.5 -157v-59h-41v59q0 74 -66.5 128.5 t-158.5 54.5h-129q-109 0 -174.5 -53.5t-65.5 -141.5q0 -63 37.5 -105.5t97 -66t131.5 -42t144 -42t131.5 -57.5t97 -97t37.5 -151q0 -115 -76.5 -181.5t-210.5 -66.5h-165q-113 0 -199 66.5t-86 154.5z" />
<glyph unicode="t" d="M164 1004v40h317v226h41v-226h379v-40h-379v-717q0 -103 71.5 -174.5t174.5 -71.5h133v-41h-133q-120 0 -203.5 83.5t-83.5 203.5v717h-317z" />
<glyph unicode="u" d="M164 287v757h41v-757q0 -101 72.5 -173.5t173.5 -72.5h159l250 172v831h41v-1044h-41v162l-235 -162h-174q-119 0 -203 84t-84 203z" />
<glyph unicode="v" d="M164 596v448h41v-438l297 -565h61l297 565v438h41v-448l-313 -596h-111z" />
<glyph unicode="w" d="M164 596v448h41v-444l100 -559h17l186 793h49l186 -793h17l100 559v444h41v-448l-106 -596h-84l-179 760l-178 -760h-84z" />
<glyph unicode="x" d="M164 0l344 522l-344 522h49l319 -485l320 485h49l-344 -522l344 -522h-49l-320 485l-319 -485h-49z" />
<glyph unicode="y" d="M164 1044h43l311 -919l338 919h45l-541 -1474h-45l183 498z" />
<glyph unicode="z" d="M164 0v41h2l686 963h-688v40h737v-40l-684 -963h684v-41h-737z" />
<glyph unicode="{" d="M266 696v43q73 25 118.5 88t45.5 144v381q0 120 83.5 203t203.5 83h82v-41h-82q-103 0 -174.5 -71t-71.5 -174v-381q0 -82 -41.5 -149t-110.5 -103q69 -38 110.5 -105t41.5 -149v-356q0 -103 71.5 -174.5t174.5 -71.5h82v-41h-82q-120 0 -203.5 83.5t-83.5 203.5v356 q0 81 -45.5 143.5t-118.5 87.5z" />
<glyph unicode="|" d="M512 -205v1843h41v-1843h-41z" />
<glyph unicode="}" d="M266 -137h82q103 0 174.5 71.5t71.5 174.5v356q0 82 41 149t110 105q-69 36 -110 103t-41 149v381q0 103 -71.5 174t-174.5 71h-82v41h82q120 0 203.5 -83t83.5 -203v-381q0 -81 45.5 -144t118.5 -88v-43q-73 -25 -118.5 -87.5t-45.5 -143.5v-356q0 -120 -83.5 -203.5 t-203.5 -83.5h-82v41z" />
<glyph unicode="~" d="M238 557q28 55 72.5 77.5t113.5 20.5l225 -94q49 -2 81.5 14t55.5 56l41 -13q-28 -55 -72.5 -77.5t-113.5 -20.5l-225 94q-49 2 -82 -13.5t-55 -55.5z" />
<glyph unicode="&#xa0;" />
<glyph unicode="&#xa2;" d="M164 289v469q0 118 84 202t203 84h61v205h41v-205h61q120 0 203.5 -83t83.5 -203v-41h-41v41q0 103 -71.5 174.5t-174.5 71.5h-61v-961h61q101 0 173.5 72.5t72.5 173.5v41h41v-41q0 -120 -84 -204.5t-203 -84.5h-61v-205h-41v205h-61q-118 0 -202.5 85t-84.5 204z M205 289q0 -101 72.5 -173.5t173.5 -72.5h61v961h-61q-103 0 -174.5 -71.5t-71.5 -174.5v-469z" />
<glyph unicode="&#xa3;" d="M164 0v41h41q103 0 174.5 71.5t71.5 174.5v268h-226v41h226v551q0 120 83 203.5t203 83.5h164v-41h-164q-103 0 -174 -71.5t-71 -174.5v-551h296v-41h-296v-268q0 -77 -37.5 -143t-100.5 -103h547v-41h-737z" />
<glyph unicode="&#xa5;" d="M164 969v465h41v-449l325 -407h2l328 428v428h41v-441l-342 -448h297v-41h-303v-205h303v-41h-303v-258h-41v258h-301v41h301v205h-301v41h295z" />
<glyph unicode="&#xa8;" d="M317 1290v103h103v-103h-103zM645 1290v103h103v-103h-103z" />
<glyph unicode="&#xa9;" d="M113 457v342q0 175 118.5 290t300.5 115q183 0 300.5 -114t117.5 -291v-342q0 -177 -117.5 -291.5t-300.5 -114.5q-184 0 -301.5 114.5t-117.5 291.5zM154 457q0 -160 106 -262.5t272 -102.5q164 0 270.5 102.5t106.5 262.5v342q0 159 -106 261.5t-271 102.5 q-166 0 -272 -102t-106 -262v-342zM348 535v188q0 86 53 142.5t131 56.5t131.5 -57t53.5 -142v-12h-41v12q0 67 -41 112.5t-103 45.5q-61 0 -102 -45t-41 -113v-188q0 -68 41 -113t102 -45q62 0 103 45.5t41 112.5v12h41v-12q0 -85 -53.5 -142t-131.5 -57t-131 56.5 t-53 142.5z" />
<glyph unicode="&#xab;" d="M123 457v131l358 303h154v-41h-139l-332 -281v-94l332 -280h139v-41h-154zM612 457v131l265 223h65v-41h-51l-238 -201v-94l238 -201h51v-41h-65z" />
<glyph unicode="&#xad;" d="M246 526v41h573v-41h-573z" />
<glyph unicode="&#xae;" d="M88 918q0 186 129.5 315t314.5 129q186 0 315.5 -129.5t129.5 -314.5q0 -122 -59.5 -224.5t-162 -161.5t-223.5 -59q-122 0 -224 59.5t-161 162t-59 223.5zM129 918q0 -167 118 -285.5t285 -118.5t285.5 118.5t118.5 285.5t-118.5 285t-285.5 118t-285 -118t-118 -285z M401 709v434h41h113q62 0 104.5 -42.5t42.5 -103.5q0 -47 -28 -85t-72 -52l92 -151h-47l-86 143h-6h-113v-143h-41zM442 893h113q44 0 75.5 30.5t31.5 73.5q0 44 -31.5 74.5t-75.5 30.5h-113v-209z" />
<glyph unicode="&#xb4;" d="M555 1229l270 311h62l-291 -311h-41z" />
<glyph unicode="&#xb8;" d="M492 -451h151q55 0 95 41t40 97q0 59 -39 100t-96 41h-65l-52 92l45 80v39h41v-49l-39 -70l29 -51h41q72 0 124 -53.5t52 -128.5q0 -72 -52 -125.5t-124 -53.5h-151v41z" />
<glyph unicode="&#xbb;" horiz-adv-x="1228" d="M287 233v41h51l237 201v94l-237 201h-51v41h65l264 -223v-131l-264 -224h-65zM594 154v41h139l332 280v94l-332 281h-139v41h154l358 -303v-131l-358 -303h-154z" />
<glyph unicode="&#x2c6;" d="M276 1229l230 311h53l229 -311h-51l-205 276l-204 -276h-52z" />
<glyph unicode="&#x2da;" d="M315 1446q0 91 64 154t156 63q90 0 153.5 -63.5t63.5 -153.5q0 -89 -64 -153t-153 -64q-92 0 -156 63t-64 154zM356 1446q0 -74 52 -125t127 -51q72 0 124 52t52 124q0 74 -51.5 125t-124.5 51q-75 0 -127 -50.5t-52 -125.5z" />
<glyph unicode="&#x2dc;" d="M238 1294q28 55 73 78t113 21l225 -95q49 -2 81.5 14t55.5 56l41 -12q-28 -55 -73 -78t-113 -21l-225 95q-49 2 -81.5 -14t-55.5 -56z" />
<glyph unicode="&#x2000;" horiz-adv-x="831" />
<glyph unicode="&#x2001;" horiz-adv-x="1663" />
<glyph unicode="&#x2002;" horiz-adv-x="831" />
<glyph unicode="&#x2003;" horiz-adv-x="1663" />
<glyph unicode="&#x2004;" horiz-adv-x="554" />
<glyph unicode="&#x2005;" horiz-adv-x="415" />
<glyph unicode="&#x2006;" horiz-adv-x="277" />
<glyph unicode="&#x2007;" horiz-adv-x="277" />
<glyph unicode="&#x2008;" horiz-adv-x="207" />
<glyph unicode="&#x2009;" horiz-adv-x="332" />
<glyph unicode="&#x200a;" horiz-adv-x="92" />
<glyph unicode="&#x2010;" d="M246 526v41h573v-41h-573z" />
<glyph unicode="&#x2011;" d="M246 526v41h573v-41h-573z" />
<glyph unicode="&#x2012;" d="M246 526v41h573v-41h-573z" />
<glyph unicode="&#x2013;" d="M123 526v41h819v-41h-819z" />
<glyph unicode="&#x2014;" d="M20 526h1024v41h-1024v-41z" />
<glyph unicode="&#x2018;" d="M455 1108l16 102l100 246h41l-116 -348h-41z" />
<glyph unicode="&#x2019;" d="M453 1106l116 348h41l-16 -102l-100 -246h-41z" />
<glyph unicode="&#x201a;" d="M453 -246l116 348h41l-16 -102l-100 -246h-41z" />
<glyph unicode="&#x201c;" d="M352 1108l17 102l100 246h41l-117 -348h-41zM555 1108l16 102l101 246h41l-117 -348h-41z" />
<glyph unicode="&#x201d;" d="M352 1106l117 348h41l-16 -102l-101 -246h-41zM555 1106l117 348h41l-17 -102l-100 -246h-41z" />
<glyph unicode="&#x201e;" d="M432 -246l117 348h41l-17 -102l-100 -246h-41z" />
<glyph unicode="&#x2026;" d="M164 0v102h102v-102h-102zM481 0v102h103v-102h-103zM799 0v102h102v-102h-102z" />
<glyph unicode="&#x202f;" horiz-adv-x="332" />
<glyph unicode="&#x2039;" d="M276 457v131l359 303h153v-41h-139l-332 -281v-94l332 -280h139v-41h-153z" />
<glyph unicode="&#x203a;" d="M276 154v41h140l332 280v94l-332 281h-140v41h154l358 -303v-131l-358 -303h-154z" />
<glyph unicode="&#x205f;" horiz-adv-x="415" />
<glyph unicode="&#x20ac;" d="M164 504v41h123v205h-123v41h123v356q0 119 84 203t202 84h41q120 0 203.5 -83.5t83.5 -203.5v-62h-41v62q0 103 -71.5 174.5t-174.5 71.5h-41q-103 0 -174 -71.5t-71 -174.5v-356h276v-41h-276v-205h276v-41h-276v-215q0 -101 72 -173.5t173 -72.5h41q101 0 173.5 72.5 t72.5 173.5v61h41v-61q0 -120 -84 -204.5t-203 -84.5h-41q-118 0 -202 85t-84 204v215h-123z" />
<glyph unicode="&#x2122;" horiz-adv-x="2129" d="M164 1393v41h491v-41h-225v-605h-41v605h-225zM819 788v646h86l211 -455l211 455h86v-646h-41v605h-18l-215 -461h-45l-215 461h-19v-605h-41z" />
<glyph unicode="&#x25fc;" horiz-adv-x="1044" d="M0 0v1044h1044v-1044h-1044z" />
</font>
</defs>
</svg>
