<svg width="25" height="25" viewBox="0 0 25 25" fill="none" xmlns="http://www.w3.org/2000/svg">
<path fill-rule="evenodd" clip-rule="evenodd" d="M12.0538 1.62474C6.29353 1.62474 1.62393 6.29435 1.62393 12.0546C1.62393 14.9923 2.8385 17.6464 4.79288 19.542C5.39426 17.9788 6.91018 16.8695 8.6852 16.8695H15.4231C17.1979 16.8695 18.7137 17.9786 19.3152 19.5415C21.2693 17.6459 22.4836 14.9921 22.4836 12.0546C22.4836 6.29435 17.814 1.62474 12.0538 1.62474ZM17.9629 20.6502C17.7758 19.4156 16.7099 18.4695 15.4231 18.4695H8.6852C7.39823 18.4695 6.3323 19.4159 6.14533 20.6507C7.82491 21.8073 9.86027 22.4845 12.0538 22.4845C14.2476 22.4845 16.2832 21.8071 17.9629 20.6502ZM0.0239258 12.0546C0.0239258 5.41069 5.40988 0.0247421 12.0538 0.0247421C18.6977 0.0247421 24.0836 5.41069 24.0836 12.0546C24.0836 18.6985 18.6977 24.0845 12.0538 24.0845C5.40988 24.0845 0.0239258 18.6985 0.0239258 12.0546ZM12.0541 6.11668C10.0151 6.11668 8.36217 7.76962 8.36217 9.80862C8.36217 11.8476 10.0151 13.5006 12.0541 13.5006C14.0931 13.5006 15.7461 11.8476 15.7461 9.80862C15.7461 7.76962 14.0931 6.11668 12.0541 6.11668ZM6.76217 9.80862C6.76217 6.88596 9.13145 4.51668 12.0541 4.51668C14.9768 4.51668 17.3461 6.88596 17.3461 9.80862C17.3461 12.7313 14.9768 15.1006 12.0541 15.1006C9.13145 15.1006 6.76217 12.7313 6.76217 9.80862Z" fill="black"/>
</svg>
