<svg width="24" height="24" viewBox="0 0 24 24" fill="none" xmlns="http://www.w3.org/2000/svg">
<path fill-rule="evenodd" clip-rule="evenodd" d="M12.0001 7.35607C11.303 7.35607 10.6753 6.93392 10.4124 6.28828C10.4132 6.29022 10.4127 6.28927 10.4107 6.28559C10.3984 6.26329 10.3311 6.14075 10.1666 5.95324C9.98961 5.75138 9.74351 5.52464 9.437 5.32106C8.83217 4.91933 8.03173 4.63009 7.04976 4.73669C5.61454 4.8925 4.73011 5.57196 4.18199 6.39944C3.59859 7.28017 3.37537 8.37279 3.43908 9.24451C3.50592 10.159 3.61071 10.8662 4.09545 11.7767C4.61134 12.7457 5.6122 14.0397 7.6719 15.9366C9.61752 17.7284 10.9784 18.8943 11.8453 19.5967C11.9185 19.6561 11.9721 19.6637 12.0002 19.6637C12.0282 19.6637 12.0818 19.6561 12.155 19.5967C13.0219 18.8943 14.3828 17.7284 16.3284 15.9366C18.3881 14.0397 19.3889 12.7457 19.9048 11.7767C20.3896 10.8662 20.4944 10.1591 20.5612 9.24451C20.6246 8.37645 20.3995 7.28379 19.8133 6.40107C19.2619 5.57067 18.3758 4.89206 16.9498 4.73661C16.1196 4.64611 15.3114 4.91494 14.6312 5.34849C14.2958 5.56231 14.021 5.7985 13.825 6.00544C13.6437 6.19692 13.5835 6.30575 13.5815 6.30472C13.5811 6.3045 13.5834 6.29911 13.5878 6.28828C13.3249 6.93392 12.6972 7.35607 12.0001 7.35607ZM10.8459 4.23424C11.4599 4.7401 11.8563 5.28858 12.0001 5.64179C12.1412 5.29523 12.5657 4.76488 13.1924 4.27042C14.1386 3.52387 15.546 2.85915 17.1355 3.03242C21.0603 3.46024 22.448 6.94647 22.2709 9.36946C22.1215 11.4136 21.7397 13.2835 17.4897 17.1976C15.5256 19.0064 14.1368 20.1974 13.2343 20.9287C12.4949 21.5278 11.5055 21.5278 10.7661 20.9287C9.86358 20.1974 8.47466 19.0064 6.51058 17.1976C2.2606 13.2835 1.87875 11.4136 1.72936 9.36946C1.55228 6.94647 2.92385 3.46024 6.86474 3.03242C8.58447 2.84572 9.94795 3.4944 10.8459 4.23424Z" fill="#262628"/>
</svg>
