<?xml version="1.0" encoding="utf-8"?>
<!-- Generator: Adobe Illustrator 21.1.0, SVG Export Plug-In . SVG Version: 6.00 Build 0)  -->
<svg version="1.1" id="Layer_1" xmlns="http://www.w3.org/2000/svg" xmlns:xlink="http://www.w3.org/1999/xlink" x="0px" y="0px"
	 viewBox="0 0 1000 1000" style="enable-background:new 0 0 1000 1000;" xml:space="preserve">
<style type="text/css">
	.st0{fill:none;stroke:#000000;stroke-width:0.75;stroke-miterlimit:10;}
	.st1{enable-background:new    ;}
</style>
<circle class="st0" cx="500" cy="400" r="100"/>
<circle class="st0" cx="500" cy="600" r="100"/>
<ellipse transform="matrix(0.5 -0.866 0.866 0.5 -183.0231 582.9822)" class="st0" cx="413.4" cy="450" rx="100" ry="100"/>
<ellipse transform="matrix(0.5 -0.866 0.866 0.5 -183.0383 782.9691)" class="st0" cx="586.6" cy="550" rx="100" ry="100"/>
<ellipse transform="matrix(0.866 -0.5 0.5 0.866 -146.4081 353.5899)" class="st0" cx="586.6" cy="450" rx="100" ry="100"/>
<ellipse transform="matrix(0.866 -0.5 0.5 0.866 -219.6127 280.3884)" class="st0" cx="413.4" cy="550" rx="100" ry="100"/>
<polygon class="st0" points="500,199 760.7,650.5 239.3,650.5 "/>
<polygon class="st0" points="760.7,349.5 239.3,349.5 239.3,349.5 500,801 "/>
<polygon class="st0" points="760.5,650.5 760.5,349.5 500,199 239.5,349.5 239.5,650.5 500,801 "/>
<g>
	<line class="st0" x1="239.5" y1="349.5" x2="760.5" y2="650.5"/>
	<line class="st0" x1="239.5" y1="650.5" x2="760.5" y2="349.5"/>
	<line class="st0" x1="500" y1="199" x2="500" y2="801"/>
</g>
<circle cx="500" cy="199" r="5"/>
<circle cx="500" cy="801" r="5"/>
<ellipse transform="matrix(0.5 -0.866 0.866 0.5 -183.0587 381.9661)" cx="239.3" cy="349.5" rx="5" ry="5"/>
<ellipse transform="matrix(0.5 -0.866 0.866 0.5 -183.0026 983.9852)" cx="760.7" cy="650.5" rx="5" ry="5"/>
<ellipse transform="matrix(0.866 -0.5 0.5 0.866 -72.8296 427.1779)" cx="760.7" cy="349.5" rx="5" ry="5"/>
<ellipse transform="matrix(0.866 -0.5 0.5 0.866 -293.1912 206.8005)" cx="239.3" cy="650.5" rx="5" ry="5"/>
<g class="st1">
	<path d="M418.9,159.5v1.4c0,2.4-1.9,4.3-4.3,4.3h-3.8v6.7h-2.4v-16.8h2.4h3.8C417,155.2,418.9,157.1,418.9,159.5z M416.5,159.5
		c0-1.1-0.8-1.9-1.9-1.9h-3.8v5.3h3.8c1.1,0,1.9-0.8,1.9-1.9V159.5z"/>
	<path d="M433.3,167.7c0,2.4-1.9,4.3-4.3,4.3H427c-2.4,0-4.3-2-4.3-4.3v-12.5h2.4v12.5c0,1.1,0.9,1.9,1.9,1.9h1.9
		c1.1,0,1.9-0.9,1.9-1.9v-12.5h2.4V167.7z"/>
	<path d="M447.7,166.7v1c0,2.4-1.9,4.3-4.3,4.3h-4.7h-1.6v-16.8h2.4h3.4c2.4,0,4.3,1.9,4.3,4.3v1c0,1.1-0.4,2.1-1.1,2.9
		C447.1,164.2,447.7,165.4,447.7,166.7z M439.5,157.6v4.8h3.4c1.1,0,1.9-0.8,1.9-1.9v-1c0-1.1-0.8-1.9-1.9-1.9H439.5z M445.3,166.7
		c0-1.1-0.8-1.9-1.9-1.9h-3.8v4.8h3.8c1.1,0,1.9-0.8,1.9-1.9V166.7z"/>
	<path d="M462.1,169.6v2.4h-10.6v-16.8h2.4v14.4H462.1z"/>
	<path d="M472.4,157.6v12h4.1v2.4H470h-4.1v-2.4h4.1v-12h-4.1v-2.4h6.5h4.1v2.4H472.4z"/>
	<path d="M488.5,159.5c0-1.1-0.8-1.9-1.9-1.9h-1.9c-1.1,0-1.9,0.9-1.9,1.9v8.1c0,1.1,0.9,1.9,1.9,1.9h1.9c1.1,0,1.9-0.9,1.9-1.9
		v-1.3h2.4v1.3c0,2.4-1.9,4.3-4.3,4.3h-1.9c-2.4,0-4.3-2-4.3-4.3v-8.1c0-2.4,1.9-4.3,4.3-4.3h1.9c2.4,0,4.3,1.9,4.3,4.3v1.3h-2.4
		V159.5z"/>
	<path d="M519.7,159.5v1.4c0,2.4-1.9,4.3-4.3,4.3h-3.8v6.7h-2.4v-16.8h2.4h3.8C517.8,155.2,519.7,157.1,519.7,159.5z M517.3,159.5
		c0-1.1-0.8-1.9-1.9-1.9h-3.8v5.3h3.8c1.1,0,1.9-0.8,1.9-1.9V159.5z"/>
	<path d="M534.1,169.6v2.4h-10.6v-16.8h2.4v14.4H534.1z"/>
	<path d="M548.5,166.5v5.5h-2.4v-3.9h-5.8v3.9h-2.4v-5.5l4.1-11.3h2.4L548.5,166.5z M540.8,165.7h4.9l-2.4-6.7h0L540.8,165.7z"/>
	<path d="M560.5,159.5c0-1.1-0.8-1.9-1.9-1.9h-1.9c-1.1,0-1.9,0.9-1.9,1.9v8.1c0,1.1,0.9,1.9,1.9,1.9h1.9c1.1,0,1.9-0.9,1.9-1.9
		v-1.3h2.4v1.3c0,2.4-1.9,4.3-4.3,4.3h-1.9c-2.4,0-4.3-2-4.3-4.3v-8.1c0-2.4,1.9-4.3,4.3-4.3h1.9c2.4,0,4.3,1.9,4.3,4.3v1.3h-2.4
		V159.5z"/>
	<path d="M569.1,157.6v4.4h7.2v2.4h-7.2v5.2h8.2v2.4h-10.6v-7.6v-6.8v-2.4h10.6v2.4H569.1z"/>
	<path d="M583.5,166.6v1c0,1.1,0.9,2.1,2.1,2.1h1.6c1.2,0,2.1-0.8,2.1-1.8c0-3.3-7.9-4-7.9-8.6c0-2.4,1.8-4,4.5-4h1.1
		c2.5,0,4.5,2,4.5,4.5v0.7H589v-0.7c0-1.2-0.9-2.1-2.1-2.1h-1.1c-1.3,0-2.1,0.6-2.1,1.6c0,2.5,7.9,3.5,7.9,8.6
		c0,2.4-1.9,4.2-4.5,4.2h-1.6c-2.5,0-4.5-2-4.5-4.5v-1H583.5z"/>
</g>
<g class="st1">
	<path d="M410.7,831.6v4.4h7.2v2.4h-7.2v5.2h8.2v2.4h-10.6v-7.6v-6.8v-2.4h10.6v2.4H410.7z"/>
	<path d="M433.3,829.2V846h-3.5l-4.7-12.8V846h-2.4v-16.8h3.5l4.7,12.8v-12.8H433.3z"/>
	<path d="M447.7,831.6h-4.1V846h-2.4v-14.4h-4.1v-2.4h6.5h4.1V831.6z"/>
	<path d="M453.9,831.6v4.4h7.2v2.4h-7.2v5.2h8.2v2.4h-10.6v-7.6v-6.8v-2.4h10.6v2.4H453.9z"/>
	<path d="M473.3,839.2l3.1,6.9h-2.6l-3-6.7h-2.5v6.7h-2.4v-16.8h2.4h3.8c2.4,0,4.3,1.9,4.3,4.3v1.4
		C476.5,837,475.2,838.7,473.3,839.2z M474.1,833.6c0-1.1-0.8-1.9-1.9-1.9h-3.8v5.3h3.8c1.1,0,1.9-0.8,1.9-1.9V833.6z"/>
	<path d="M490.9,831.6h-4.1V846h-2.4v-14.4h-4.1v-2.4h6.5h4.1V831.6z"/>
	<path d="M505.3,840.5v5.5h-2.4v-3.9h-5.8v3.9h-2.4v-5.5l4.1-11.3h2.4L505.3,840.5z M497.6,839.8h4.9L500,833h0L497.6,839.8z"/>
	<path d="M515.6,831.6v12h4.1v2.4h-6.5h-4.1v-2.4h4.1v-12h-4.1v-2.4h6.5h4.1v2.4H515.6z"/>
	<path d="M534.1,829.2V846h-3.5l-4.7-12.8V846h-2.4v-16.8h3.5l4.7,12.8v-12.8H534.1z"/>
	<path d="M548.5,829.2V846h-2.4v-11.5l-2.2,4.8h-1.3l-2.2-4.8V846h-2.4v-16.8h2.4l2.9,6.3l2.9-6.3H548.5z"/>
	<path d="M554.7,831.6v4.4h7.2v2.4h-7.2v5.2h8.2v2.4h-10.6v-7.6v-6.8v-2.4h10.6v2.4H554.7z"/>
	<path d="M577.3,829.2V846h-3.5l-4.7-12.8V846h-2.4v-16.8h3.5l4.7,12.8v-12.8H577.3z"/>
	<path d="M591.7,831.6h-4.1V846h-2.4v-14.4h-4.1v-2.4h6.5h4.1V831.6z"/>
</g>
<g class="st1">
	<path d="M774.9,283.2v5.5l-4.1,11.3h-2.4l-4.1-11.3v-5.5h2.4v5.1l2.9,7.9h0l2.9-7.9v-5.1H774.9z"/>
	<path d="M785.2,285.6v12h4.1v2.4h-6.5h-4.1v-2.4h4.1v-12h-4.1v-2.4h6.5h4.1v2.4H785.2z"/>
	<path d="M803.7,287.5v8.1c0,2.4-1.9,4.3-4.3,4.3h-4.6h-1.7v-16.8h2.4h3.8C801.8,283.2,803.7,285.1,803.7,287.5z M801.3,287.5
		c0-1.1-0.8-1.9-1.9-1.9h-3.8v12h3.8c1.1,0,1.9-0.9,1.9-1.9V287.5z"/>
	<path d="M809.9,285.6v4.4h7.2v2.4h-7.2v5.2h8.2v2.4h-10.6v-7.6v-6.8v-2.4h10.6v2.4H809.9z"/>
	<path d="M826.3,300c-2.4,0-4.3-2-4.3-4.3v-8.1c0-2.4,1.9-4.3,4.3-4.3h1.9c2.4,0,4.3,1.9,4.3,4.3v8.1c0,2.4-1.9,4.3-4.3,4.3H826.3z
		 M830.1,295.7v-8.1c0-1.1-0.8-1.9-1.9-1.9h-1.9c-1.1,0-1.9,0.9-1.9,1.9v8.1c0,1.1,0.9,1.9,1.9,1.9h1.9
		C829.2,297.6,830.1,296.7,830.1,295.7z"/>
</g>
<g class="st1">
	<path d="M165.7,287.5v1.4c0,2.4-1.9,4.3-4.3,4.3h-3.8v6.7h-2.4v-16.8h2.4h3.8C163.8,283.2,165.7,285.1,165.7,287.5z M163.3,287.5
		c0-1.1-0.8-1.9-1.9-1.9h-3.8v5.3h3.8c1.1,0,1.9-0.8,1.9-1.9V287.5z"/>
	<path d="M173.9,300c-2.4,0-4.3-2-4.3-4.3v-8.1c0-2.4,1.9-4.3,4.3-4.3h1.9c2.4,0,4.3,1.9,4.3,4.3v8.1c0,2.4-1.9,4.3-4.3,4.3H173.9z
		 M177.7,295.7v-8.1c0-1.1-0.8-1.9-1.9-1.9h-1.9c-1.1,0-1.9,0.9-1.9,1.9v8.1c0,1.1,0.9,1.9,1.9,1.9h1.9
		C176.9,297.6,177.7,296.7,177.7,295.7z"/>
	<path d="M194.5,287.5v8.1c0,2.4-1.9,4.3-4.3,4.3h-4.6H184v-16.8h2.4h3.8C192.6,283.2,194.5,285.1,194.5,287.5z M192.1,287.5
		c0-1.1-0.8-1.9-1.9-1.9h-3.8v12h3.8c1.1,0,1.9-0.9,1.9-1.9V287.5z"/>
	<path d="M206.5,287.5c0-1.1-0.8-1.9-1.9-1.9h-1.9c-1.1,0-1.9,0.9-1.9,1.9v8.1c0,1.1,0.9,1.9,1.9,1.9h1.9c1.1,0,1.9-0.9,1.9-1.9
		v-1.3h2.4v1.3c0,2.4-1.9,4.3-4.3,4.3h-1.9c-2.4,0-4.3-2-4.3-4.3v-8.1c0-2.4,1.9-4.3,4.3-4.3h1.9c2.4,0,4.3,1.9,4.3,4.3v1.3h-2.4
		V287.5z"/>
	<path d="M223.3,294.5v5.5h-2.4v-3.9h-5.8v3.9h-2.4v-5.5l4.1-11.3h2.4L223.3,294.5z M215.6,293.7h4.9l-2.4-6.7h0L215.6,293.7z"/>
	<path d="M229.6,294.6v1c0,1.1,0.9,2.1,2.1,2.1h1.6c1.2,0,2.1-0.8,2.1-1.8c0-3.3-7.9-4-7.9-8.6c0-2.4,1.8-4,4.5-4h1.1
		c2.5,0,4.5,2,4.5,4.5v0.7h-2.4v-0.7c0-1.2-0.9-2.1-2.1-2.1h-1.1c-1.3,0-2.1,0.6-2.1,1.6c0,2.5,7.9,3.5,7.9,8.6
		c0,2.4-1.9,4.2-4.5,4.2h-1.6c-2.5,0-4.5-2-4.5-4.5v-1H229.6z"/>
	<path d="M252.1,285.6h-4.1V300h-2.4v-14.4h-4.1v-2.4h6.5h4.1V285.6z"/>
	<path d="M258.4,294.6v1c0,1.1,0.9,2.1,2.1,2.1h1.6c1.2,0,2.1-0.8,2.1-1.8c0-3.3-7.9-4-7.9-8.6c0-2.4,1.8-4,4.5-4h1.1
		c2.5,0,4.5,2,4.5,4.5v0.7h-2.4v-0.7c0-1.2-0.9-2.1-2.1-2.1h-1.1c-1.3,0-2.1,0.6-2.1,1.6c0,2.5,7.9,3.5,7.9,8.6
		c0,2.4-1.9,4.2-4.5,4.2h-1.6c-2.5,0-4.5-2-4.5-4.5v-1H258.4z"/>
</g>
<g class="st1">
	<path d="M758.1,699.4V698c0-1.1-0.8-1.9-1.9-1.9h-1.9c-1.1,0-1.9,0.9-1.9,1.9v8.1c0,1.1,0.9,1.9,1.9,1.9h1.9c1.1,0,1.9-0.9,1.9-1.9
		v-1.3v-1h-3.6v-2.4h6v3.4v1.3c0,2.4-1.9,4.3-4.3,4.3h-1.9c-2.4,0-4.3-2-4.3-4.3V698c0-2.4,1.9-4.3,4.3-4.3h1.9
		c2.4,0,4.3,1.9,4.3,4.3v1.3H758.1z"/>
	<path d="M774.9,705v5.5h-2.4v-3.9h-5.8v3.9h-2.4V705l4.1-11.3h2.4L774.9,705z M767.2,704.2h4.9l-2.4-6.7h0L767.2,704.2z"/>
	<path d="M789.3,693.7v16.8h-2.4V699l-2.2,4.8h-1.3l-2.2-4.8v11.5h-2.4v-16.8h2.4l2.9,6.3l2.9-6.3H789.3z"/>
	<path d="M795.5,696.1v4.4h7.2v2.4h-7.2v5.2h8.2v2.4h-10.6v-7.6v-6.8v-2.4h10.6v2.4H795.5z"/>
	<path d="M818.1,698v8.1c0,2.4-1.9,4.3-4.3,4.3h-4.6h-1.7v-16.8h2.4h3.8C816.2,693.7,818.1,695.6,818.1,698z M815.7,698
		c0-1.1-0.8-1.9-1.9-1.9h-3.8v12h3.8c1.1,0,1.9-0.9,1.9-1.9V698z"/>
	<path d="M824.3,696.1v4.4h7.2v2.4h-7.2v5.2h8.2v2.4h-10.6v-7.6v-6.8v-2.4h10.6v2.4H824.3z"/>
	<path d="M846.9,693.7v5.5l-4.1,11.3h-2.4l-4.1-11.3v-5.5h2.4v5.1l2.9,7.9h0l2.9-7.9v-5.1H846.9z"/>
</g>
<g class="st1">
	<path d="M138.5,708.1v2.4H128v-16.8h2.4v14.4H138.5z"/>
	<path d="M148.9,696.1v12h4.1v2.4h-6.5h-4.1v-2.4h4.1v-12h-4.1v-2.4h6.5h4.1v2.4H148.9z"/>
	<path d="M159.2,696.1v5.1h7.2v2.4h-7.2v6.9h-2.4v-9.3v-7.5h10.6v2.4H159.2z"/>
	<path d="M173.6,696.1v4.4h7.2v2.4h-7.2v5.2h8.2v2.4h-10.6v-7.6v-6.8v-2.4h10.6v2.4H173.6z"/>
	<path d="M188,705.1v1c0,1.1,0.9,2.1,2.1,2.1h1.6c1.2,0,2.1-0.8,2.1-1.8c0-3.3-7.9-4-7.9-8.6c0-2.4,1.8-4,4.5-4h1.1
		c2.5,0,4.5,2,4.5,4.5v0.7h-2.4v-0.7c0-1.2-0.9-2.1-2.1-2.1h-1.1c-1.3,0-2.1,0.6-2.1,1.6c0,2.5,7.9,3.5,7.9,8.6
		c0,2.4-1.9,4.2-4.5,4.2H190c-2.5,0-4.5-2-4.5-4.5v-1H188z"/>
	<path d="M210.5,696.1h-4.1v14.4h-2.4v-14.4H200v-2.4h6.5h4.1V696.1z"/>
	<path d="M224.9,693.7v5.5l-4.1,5.4v6h-2.4v-6l-4.1-5.1v-5.8h2.4v4.9l2.8,3.5h0l2.9-3.8v-4.7H224.9z"/>
	<path d="M239.3,708.1v2.4h-10.6v-16.8h2.4v14.4H239.3z"/>
	<path d="M245.6,696.1v4.4h7.2v2.4h-7.2v5.2h8.2v2.4h-10.6v-7.6v-6.8v-2.4h10.6v2.4H245.6z"/>
</g>
</svg>
