<?xml version="1.0" encoding="utf-8"?>
<!-- Generator: Adobe Illustrator 21.1.0, SVG Export Plug-In . SVG Version: 6.00 Build 0)  -->
<svg version="1.1" id="Layer_1" xmlns="http://www.w3.org/2000/svg" xmlns:xlink="http://www.w3.org/1999/xlink" x="0px" y="0px"
	 viewBox="0 0 1000 1000" style="enable-background:new 0 0 1000 1000;" xml:space="preserve">
<style type="text/css">
	.st0{fill:#DDDDDD;}
	.st1{fill:none;stroke:#DDDDDD;stroke-width:0.75;stroke-miterlimit:10;}
	.st2{fill:none;stroke:#DDDDDD;stroke-miterlimit:10;}
</style>
<g>
	<path class="st0" d="M402.1,452.5c0-1.1-0.8-1.9-1.9-1.9h-1.9c-1.1,0-1.9,0.9-1.9,1.9v8.1c0,1.1,0.9,1.9,1.9,1.9h1.9
		c1.1,0,1.9-0.9,1.9-1.9v-1.3h2.4v1.3c0,2.4-1.9,4.3-4.3,4.3h-1.9c-2.4,0-4.3-2-4.3-4.3v-8.1c0-2.4,1.9-4.3,4.3-4.3h1.9
		c2.4,0,4.3,1.9,4.3,4.3v1.3h-2.4V452.5z"/>
	<path class="st0" d="M418.9,462.6v2.4h-10.6v-16.8h2.4v14.4H418.9z"/>
	<path class="st0" d="M425.1,450.6v4.4h7.2v2.4h-7.2v5.2h8.2v2.4h-10.6v-7.6v-6.8v-2.4h10.6v2.4H425.1z"/>
	<path class="st0" d="M447.7,459.5v5.5h-2.4v-3.9h-5.8v3.9h-2.4v-5.5l4.1-11.3h2.4L447.7,459.5z M440,458.7h4.9l-2.4-6.7l0,0
		L440,458.7z"/>
	<path class="st0" d="M462.1,448.2V465h-3.5l-4.7-12.8V465h-2.4v-16.8h3.5l4.7,12.8v-12.8H462.1z"/>
	<path class="st0" d="M487.7,458.1l3.1,6.9h-2.6l-3-6.7h-2.5v6.7h-2.4v-16.8h2.4h3.8c2.4,0,4.3,1.9,4.3,4.3v1.4
		C490.9,455.9,489.6,457.6,487.7,458.1z M488.5,452.5c0-1.1-0.8-1.9-1.9-1.9h-3.8v5.3h3.8c1.1,0,1.9-0.8,1.9-1.9V452.5z"/>
	<path class="st0" d="M499,465c-2.4,0-4.3-2-4.3-4.3v-8.1c0-2.4,1.9-4.3,4.3-4.3h1.9c2.4,0,4.3,1.9,4.3,4.3v8.1
		c0,2.4-1.9,4.3-4.3,4.3H499z M502.9,460.6v-8.1c0-1.1-0.8-1.9-1.9-1.9h-2c-1.1,0-1.9,0.9-1.9,1.9v8.1c0,1.1,0.9,1.9,1.9,1.9h1.9
		C502,462.6,502.9,461.7,502.9,460.6z"/>
	<path class="st0" d="M519.7,448.2v5.5l-4.1,5.4v6h-2.4v-6l-4.1-5.1v-5.8h2.4v4.9l2.8,3.5l0,0l2.9-3.8v-4.7h2.5V448.2z"/>
	<path class="st0" d="M534.1,459.5v5.5h-2.4v-3.9h-5.8v3.9h-2.4v-5.5l4.1-11.3h2.4L534.1,459.5z M526.4,458.7h4.9l-2.4-6.7l0,0
		L526.4,458.7z"/>
	<path class="st0" d="M548.5,462.6v2.4h-10.6v-16.8h2.4v14.4H548.5z"/>
	<path class="st0" d="M562.9,450.6h-4.1V465h-2.4v-14.4h-4.1v-2.4h6.5h4.1V450.6z"/>
	<path class="st0" d="M573.2,450.6v12h4.1v2.4h-6.5h-4.1v-2.4h4.1v-12h-4.1v-2.4h6.5h4.1v2.4H573.2z"/>
	<path class="st0" d="M583.5,450.6v4.4h7.2v2.4h-7.2v5.2h8.2v2.4h-10.6v-7.6v-6.8v-2.4h10.6v2.4H583.5z"/>
	<path class="st0" d="M597.9,459.6v1c0,1.1,0.9,2.1,2.1,2.1h1.6c1.2,0,2.1-0.8,2.1-1.8c0-3.3-7.9-4-7.9-8.6c0-2.4,1.8-4,4.5-4h1.1
		c2.5,0,4.5,2,4.5,4.5v0.7h-2.4v-0.7c0-1.2-0.9-2.1-2.1-2.1h-1.1c-1.3,0-2.1,0.6-2.1,1.6c0,2.5,7.9,3.5,7.9,8.6
		c0,2.4-1.9,4.2-4.5,4.2H600c-2.5,0-4.5-2-4.5-4.5v-1L597.9,459.6L597.9,459.6z"/>
</g>
<g>
	<path class="st0" d="M574.2,695c-2.4,0-4.3-2-4.3-4.3v-8.1c0-2.4,1.9-4.3,4.3-4.3h1.9c2.4,0,4.3,1.9,4.3,4.3v8.1
		c0,2.4-1.9,4.3-4.3,4.3H574.2z M578.1,690.6v-8.1c0-1.1-0.8-1.9-1.9-1.9h-1.9c-1.1,0-1.9,0.9-1.9,1.9v8.1c0,1.1,0.9,1.9,1.9,1.9
		h1.9C577.2,692.6,578.1,691.7,578.1,690.6z"/>
	<path class="st0" d="M594.9,682.5v1.4c0,2.4-1.9,4.3-4.3,4.3h-3.8v6.7h-2.4v-16.8h2.4h3.8C593,678.2,594.9,680.1,594.9,682.5z
		 M592.5,682.5c0-1.1-0.8-1.9-1.9-1.9h-3.8v5.3h3.8c1.1,0,1.9-0.8,1.9-1.9V682.5z"/>
	<path class="st0" d="M601.1,680.6v4.4h7.2v2.4h-7.2v5.2h8.2v2.4h-10.6v-7.6v-6.8v-2.4h10.6v2.4L601.1,680.6L601.1,680.6z"/>
	<path class="st0" d="M623.7,678.2V695h-3.5l-4.7-12.8V695h-2.4v-16.8h3.5l4.7,12.8v-12.8H623.7z"/>
	<path class="st0" d="M644.3,689.6v1c0,1.1,0.9,2.1,2.1,2.1h1.6c1.2,0,2.1-0.8,2.1-1.8c0-3.3-7.9-4-7.9-8.6c0-2.4,1.8-4,4.5-4h1.1
		c2.5,0,4.5,2,4.5,4.5v0.7h-2.4v-0.7c0-1.2-0.9-2.1-2.1-2.1h-1.1c-1.3,0-2.1,0.6-2.1,1.6c0,2.5,7.9,3.5,7.9,8.6
		c0,2.4-1.9,4.2-4.5,4.2h-1.6c-2.5,0-4.5-2-4.5-4.5v-1H644.3z"/>
	<path class="st0" d="M666.9,680.6h-4.1V695h-2.4v-14.4h-4.1v-2.4h6.5h4.1V680.6z"/>
	<path class="st0" d="M681.3,689.5v5.5h-2.4v-3.9h-5.8v3.9h-2.4v-5.5l4.1-11.3h2.4L681.3,689.5z M673.6,688.7h4.9L676,682l0,0
		L673.6,688.7z"/>
	<path class="st0" d="M695.7,680.6h-4.1V695h-2.4v-14.4h-4.1v-2.4h6.5h4.1V680.6z"/>
	<path class="st0" d="M701.9,689.6v1c0,1.1,0.9,2.1,2.1,2.1h1.6c1.2,0,2.1-0.8,2.1-1.8c0-3.3-7.9-4-7.9-8.6c0-2.4,1.8-4,4.5-4h1.1
		c2.5,0,4.5,2,4.5,4.5v0.7h-2.4v-0.7c0-1.2-0.9-2.1-2.1-2.1h-1.1c-1.3,0-2.1,0.6-2.1,1.6c0,2.5,7.9,3.5,7.9,8.6
		c0,2.4-1.9,4.2-4.5,4.2H704c-2.5,0-4.5-2-4.5-4.5v-1H701.9z"/>
</g>
<g>
	<path class="st0" d="M285.1,689.6v1c0,1.1,0.9,2.1,2.1,2.1h1.6c1.2,0,2.1-0.8,2.1-1.8c0-3.3-7.9-4-7.9-8.6c0-2.4,1.8-4,4.5-4h1.1
		c2.5,0,4.5,2,4.5,4.5v0.7h-2.4v-0.7c0-1.2-0.9-2.1-2.1-2.1h-1.1c-1.3,0-2.1,0.6-2.1,1.6c0,2.5,7.9,3.5,7.9,8.6
		c0,2.4-1.9,4.2-4.5,4.2h-1.6c-2.5,0-4.5-2-4.5-4.5v-1H285.1z"/>
	<path class="st0" d="M307.7,678.2V695h-2.4v-11.5l-2.2,4.8h-1.3l-2.2-4.8V695h-2.4v-16.8h2.4l2.9,6.3l2.9-6.3H307.7z"/>
	<path class="st0" d="M322.1,689.5v5.5h-2.4v-3.9h-5.8v3.9h-2.4v-5.5l4.1-11.3h2.4L322.1,689.5z M314.4,688.7h4.9l-2.4-6.7l0,0
		L314.4,688.7z"/>
	<path class="st0" d="M333.3,688.1l3.1,6.9h-2.6l-3-6.7h-2.5v6.7h-2.4v-16.8h2.4h3.8c2.4,0,4.3,1.9,4.3,4.3v1.4
		C336.5,685.9,335.2,687.6,333.3,688.1z M334.1,682.5c0-1.1-0.8-1.9-1.9-1.9h-3.8v5.3h3.8c1.1,0,1.9-0.8,1.9-1.9V682.5z"/>
	<path class="st0" d="M350.9,680.6h-4.1V695h-2.4v-14.4h-4.1v-2.4h6.5h4.1V680.6z"/>
	<path class="st0" d="M379.7,678.2V695h-2.4v-11.5l-2.2,4.8h-1.3l-2.2-4.8V695h-2.4v-16.8h2.4l2.9,6.3l2.9-6.3H379.7z"/>
	<path class="st0" d="M394.1,690.6c0,2.4-1.9,4.3-4.3,4.3h-1.9c-2.4,0-4.3-2-4.3-4.3v-12.5h2.4v12.5c0,1.1,0.9,1.9,1.9,1.9h1.9
		c1.1,0,1.9-0.9,1.9-1.9v-12.5h2.4V690.6z"/>
	<path class="st0" d="M400.3,689.6v1c0,1.1,0.9,2.1,2.1,2.1h1.6c1.2,0,2.1-0.8,2.1-1.8c0-3.3-7.9-4-7.9-8.6c0-2.4,1.8-4,4.5-4h1.1
		c2.5,0,4.5,2,4.5,4.5v0.7h-2.4v-0.7c0-1.2-0.9-2.1-2.1-2.1h-1.1c-1.3,0-2.1,0.6-2.1,1.6c0,2.5,7.9,3.5,7.9,8.6
		c0,2.4-1.9,4.2-4.5,4.2h-1.6c-2.5,0-4.5-2-4.5-4.5v-1H400.3z"/>
	<path class="st0" d="M418.8,680.6v12h4.1v2.4h-6.5h-4.1v-2.4h4.1v-12h-4.1v-2.4h6.5h4.1v2.4H418.8z"/>
	<path class="st0" d="M434.9,682.5c0-1.1-0.8-1.9-1.9-1.9h-2c-1.1,0-1.9,0.9-1.9,1.9v8.1c0,1.1,0.9,1.9,1.9,1.9h1.9
		c1.1,0,1.9-0.9,1.9-1.9v-1.3h2.4v1.3c0,2.4-1.9,4.3-4.3,4.3H431c-2.4,0-4.3-2-4.3-4.3v-8.1c0-2.4,1.9-4.3,4.3-4.3h1.9
		c2.4,0,4.3,1.9,4.3,4.3v1.3h-2.4v-1.3H434.9z"/>
</g>
<g>
	<circle class="st1" cx="500" cy="455" r="150"/>
	<ellipse transform="matrix(0.866 -0.5 0.5 0.866 -290.4095 276.1594)" class="st1" cx="370.1" cy="680" rx="150" ry="150"/>
	<ellipse transform="matrix(0.5 -0.866 0.866 0.5 -273.9526 885.5068)" class="st1" cx="629.9" cy="680" rx="150" ry="150"/>
	<polygon class="st2" points="500,154.5 110,830 890,830 	"/>
</g>
</svg>
