<?xml version="1.0" encoding="utf-8"?>
<!-- Generator: Adobe Illustrator 21.1.0, SVG Export Plug-In . SVG Version: 6.00 Build 0)  -->
<svg version="1.1" id="US_UK_Download_on_the" xmlns="http://www.w3.org/2000/svg" xmlns:xlink="http://www.w3.org/1999/xlink"
	 x="0px" y="0px" viewBox="0 0 45.1 45.3" style="enable-background:new 0 0 45.1 45.3;" xml:space="preserve">
<style type="text/css">
	.st0{fill:#E0E0E0;}
</style>
<circle class="st0" cx="22.5" cy="22.5" r="21.2"/>
<g>
	<g>
		<g>
			<path d="M27.8,21.2c0-2.5,2-3.7,2.1-3.7c-1.2-1.7-3-1.9-3.6-1.9c-1.5-0.2-3,0.9-3.8,0.9s-2-0.9-3.3-0.9c-1.6,0-3.2,1-4,2.5
				c-1.7,3-0.4,7.5,1.2,9.9c0.8,1.2,1.8,2.5,3.1,2.5c1.2-0.1,1.7-0.8,3.2-0.8s1.9,0.8,3.2,0.8c1.3,0,2.2-1.2,3-2.4
				c1-1.4,1.4-2.7,1.4-2.8C30.4,25.2,27.8,24.2,27.8,21.2z"/>
			<path d="M25.3,13.9c0.7-0.8,1.1-2,1-3.1c-1,0-2.2,0.7-2.9,1.5c-0.6,0.7-1.2,1.9-1,3C23.5,15.4,24.6,14.8,25.3,13.9z"/>
		</g>
	</g>
</g>
</svg>
