<?xml version="1.0" encoding="utf-8"?>
<!-- Generator: Adobe Illustrator 21.1.0, SVG Export Plug-In . SVG Version: 6.00 Build 0)  -->
<svg version="1.1" id="Layer_1" xmlns="http://www.w3.org/2000/svg" xmlns:xlink="http://www.w3.org/1999/xlink" x="0px" y="0px"
	 viewBox="0 0 300 50.7" style="enable-background:new 0 0 300 50.7;" xml:space="preserve">
<g>
	<path d="M19.2,38.6v11.1H0V0c6.1,0,12.6,0,18.7,0l9.9,14.2L38.6,0c6,0,12.6,0,18.7,0v49.7H38.2V38.6l0.1-11.5L32,38.6h-6.8L19.3,27
		L19.2,38.6z"/>
	<path d="M86.1,34.9c1.8,0,3.5-1,3.5-3.1V0H109v31.8c-0.1,12.9-11.3,18.9-22.9,18.9s-22.9-6-22.9-18.9V0h19.5v31.7
		C82.7,33.7,84.4,34.9,86.1,34.9z"/>
	<path d="M146.2,0c7.4,0,13.3,6.2,13.1,13.6c-0.1,4-2.2,7.7-6.1,9c5.9,2.3,9,6.1,8.7,12.6c-0.4,8.5-7,14.4-15.8,14.4h-31.2V0H146.2z
		 M134.2,18.5h3.6c3.3,0,3.5-5.2,0-5.2h-3.6V18.5z M134.2,36.1h4.8c2.5,0,3.5-1.6,3.5-3.1c0-1.6-1-3.1-3.5-3.1h-4.8V36.1z"/>
	<path d="M165.3,0c13.3,0,26.6,0,39.8,0v14.6h-20.5V18h19.7v13.8h-19.7v3.3h20.5v14.6c-13.3,0-26.6,0-39.8,0V0z"/>
	<path d="M229.7,36.5v13.2c-6.5,0-12.9,0-19.4,0V0c8.1,0,13.4,0,21.4,0c12.4,0.1,24.4,3.5,24.4,18.3c0,7.2-2.9,11.8-7.3,14.5
		l8.1,15.3v1.6h-19.5l-6.3-13.2C231.1,36.5,229.7,36.5,229.7,36.5z M232.2,21.6c3.2-0.1,4.7-0.9,4.7-3.3c0-2.3-1.5-3.4-4.7-3.4h-2.7
		v6.7C229.5,21.6,232.2,21.6,232.2,21.6z"/>
	<path d="M270.1,49.7V15.5h-10.6V0H300v15.5h-10.6v34.2H270.1z"/>
</g>
</svg>
