<svg width="155" height="32" viewBox="0 0 155 32" fill="none" xmlns="http://www.w3.org/2000/svg">
<path d="M14.9524 13.144C18.8777 13.1653 21.9177 14.36 24.0724 16.728C25.7577 18.5627 26.515 20.6747 26.3444 23.064C26.1524 25.4747 25.0217 27.416 22.9524 28.888C20.9044 30.36 18.2377 31.064 14.9524 31C13.843 30.9787 9.05371 30.968 0.584375 30.968V0.695999H23.0484V5.912H6.21638V13.144H14.9524ZM14.9524 25.688C15.5924 25.688 16.2217 25.6347 16.8404 25.528C17.459 25.4 18.0564 25.208 18.6324 24.952C19.2297 24.696 19.7097 24.3227 20.0724 23.832C20.435 23.32 20.6164 22.7227 20.6164 22.04C20.6164 21.1867 20.2964 20.4293 19.6564 19.768C19.0377 19.1067 18.3017 18.6267 17.4484 18.328C16.6164 18.0293 15.7844 17.88 14.9524 17.88H6.21638V25.688H14.9524ZM43.1204 10.424H46.8644V31H42.1604V18.744L32.6244 31H29.5844V10.392H34.2884V21.624L43.1204 10.424ZM59.8451 9.368C58.9705 9.66666 58.1811 10.104 57.4771 10.68C57.4558 10.7013 57.4238 10.7333 57.3811 10.776C57.3598 10.7973 57.3385 10.8187 57.3171 10.84C58.4051 10.4987 59.5571 10.328 60.7731 10.328C62.9278 10.328 64.8371 10.8187 66.5011 11.8C68.1651 12.7813 69.4345 14.0933 70.3091 15.736C71.1838 17.3573 71.6211 19.16 71.6211 21.144C71.6211 23.128 71.1945 24.9413 70.3411 26.584C69.4878 28.2053 68.2291 29.5067 66.5651 30.488C64.9225 31.448 63.0131 31.928 60.8371 31.928C59.1945 31.928 57.6905 31.64 56.3251 31.064C54.9598 30.5093 53.8185 29.7413 52.9011 28.76C52.0051 27.7787 51.3118 26.6373 50.8211 25.336C50.3305 24.0133 50.0851 22.616 50.0851 21.144C50.0851 21.016 50.0745 20.7813 50.0531 20.44C50.0531 20.0987 50.0531 19.9067 50.0531 19.864C50.0531 16.792 50.4371 14.2533 51.2051 12.248C51.9731 10.2 52.9865 8.632 54.2451 7.544C55.4611 6.47733 56.7091 5.73067 57.9891 5.304C59.1625 4.92 60.4425 4.61067 61.8291 4.376C63.2371 4.14133 64.2611 3.896 64.9011 3.64C65.3918 3.42666 65.7545 3.11733 65.9891 2.712L66.3411 2.136H71.3971L70.6291 3.768C70.0958 4.89867 69.4238 5.784 68.6131 6.424C67.8238 7.064 67.0345 7.512 66.2451 7.768C65.5625 7.98133 64.6878 8.19467 63.6211 8.408C62.0851 8.728 60.8265 9.048 59.8451 9.368ZM60.8371 15C59.0665 15 57.6798 15.608 56.6771 16.824C55.6958 18.0187 55.2051 19.4587 55.2051 21.144C55.2051 22.2107 55.4078 23.2027 55.8131 24.12C56.2185 25.016 56.8585 25.7627 57.7331 26.36C58.6078 26.936 59.6425 27.224 60.8371 27.224C62.6078 27.224 63.9838 26.6373 64.9651 25.464C65.9678 24.2693 66.4691 22.8293 66.4691 21.144C66.4691 19.5013 65.9358 18.072 64.8691 16.856C63.8238 15.6187 62.4798 15 60.8371 15ZM88.4016 10.424H92.1456V31H87.4416V18.744L77.9056 31H74.8656V10.392H79.5696V21.624L88.4016 10.424ZM108.454 10.392H113.382V31H108.454V23.224H100.294V31H95.3344V10.392H100.294V18.52H108.454V10.392ZM114.984 10.392H132.168V15.032H126.056V31H121.096V15.032H114.984V10.392ZM154.052 20.696C154.052 22.7013 153.626 24.5147 152.772 26.136C151.919 27.7573 150.66 29.0587 148.996 30.04C147.354 31 145.444 31.48 143.268 31.48C141.092 31.48 139.172 31 137.508 30.04C135.866 29.0587 134.618 27.7573 133.764 26.136C132.932 24.5147 132.516 22.7013 132.516 20.696C132.516 18.712 132.943 16.9093 133.796 15.288C134.65 13.6667 135.898 12.3653 137.54 11.384C139.183 10.4027 141.071 9.912 143.204 9.912C145.359 9.912 147.268 10.4027 148.932 11.384C150.596 12.3653 151.866 13.6667 152.74 15.288C153.615 16.9093 154.052 18.712 154.052 20.696ZM137.636 20.696C137.636 22.3813 138.127 23.8213 139.108 25.016C140.09 26.1893 141.466 26.776 143.236 26.776C145.028 26.776 146.415 26.1893 147.396 25.016C148.378 23.8213 148.868 22.3813 148.868 20.696C148.868 19.0747 148.346 17.656 147.3 16.44C146.255 15.2027 144.911 14.584 143.268 14.584C141.519 14.584 140.143 15.192 139.14 16.408C138.138 17.6027 137.636 19.032 137.636 20.696Z" fill="url(#paint0_linear_712_1441)"/>
<defs>
<linearGradient id="paint0_linear_712_1441" x1="-58" y1="26.5" x2="211" y2="26.5" gradientUnits="userSpaceOnUse">
<stop offset="0.117708" stop-color="#FF007A"/>
<stop offset="0.227083" stop-color="#FE2DB7"/>
<stop offset="0.45625" stop-color="#5A0DFE"/>
<stop offset="0.682292" stop-color="#2E75FF"/>
<stop offset="1" stop-color="#6CF2FE"/>
</linearGradient>
</defs>
</svg>
