<svg width="14" height="14" viewBox="0 0 14 14" fill="none" xmlns="http://www.w3.org/2000/svg">
<path d="M11.8294 7.26001L6.5185 11.9912C5.1746 13.1948 3.36356 13.0795 2.20651 12.0424C1.03508 11.0052 0.90572 9.40471 2.264 8.19472L9.52253 1.72859C10.3131 1.02436 11.4917 0.902723 12.2606 1.58775C13.0296 2.27917 12.8859 3.32272 12.0954 4.02055L4.97337 10.3778C4.65716 10.6659 4.28345 10.5827 4.05348 10.3906C3.84506 10.1922 3.75882 9.85926 4.07504 9.57117L9.04102 5.14732C9.29255 4.91684 9.30693 4.58393 9.06258 4.36626C8.81823 4.16139 8.44453 4.16779 8.19299 4.39187L3.20545 8.83493C2.42929 9.52635 2.45804 10.5827 3.14796 11.1973C3.89537 11.8631 5.02368 11.8439 5.79984 11.1525L12.9577 4.76959C14.352 3.53399 14.3017 1.90145 13.0799 0.813093C11.8798 -0.249655 10.0184 -0.32648 8.62419 0.915527L1.32255 7.42646C-0.495679 9.0526 -0.373506 11.383 1.28661 12.8618C2.93954 14.3279 5.56268 14.4432 7.3809 12.8234L12.7278 8.06667C12.9721 7.849 12.9721 7.45207 12.7206 7.2472C12.4834 7.01673 12.081 7.04874 11.8294 7.26001Z" fill="#76768C"/>
</svg>
