<svg width="100" height="19" viewBox="0 0 100 19" fill="none" xmlns="http://www.w3.org/2000/svg">
<path d="M12.5284 10.1042C12.5075 7.7038 14.4356 6.53602 14.5238 6.48165C13.4318 4.84094 11.7393 4.61677 11.1445 4.5989C9.723 4.44473 8.34412 5.47548 7.62 5.47548C6.88142 5.47548 5.76633 4.61379 4.56451 4.63911C3.01798 4.66369 1.57117 5.58645 0.777672 7.01937C-0.859919 9.94106 0.361409 14.2346 1.93035 16.5962C2.71518 17.7529 3.63225 19.0443 4.83263 18.9988C6.00698 18.9489 6.44565 18.2273 7.86282 18.2273C9.26699 18.2273 9.67891 18.9988 10.9031 18.9698C12.1635 18.9489 12.957 17.808 13.7144 16.6409C14.6213 15.3153 14.9855 14.0097 15 13.9427C14.9704 13.9322 12.5523 12.9812 12.5284 10.1042Z" fill="black"/>
<path d="M10.2159 3.04532C10.8475 2.2313 11.2796 1.12384 11.1597 0C10.2455 0.0417066 9.10221 0.651665 8.44385 1.44781C7.86137 2.14938 7.34104 3.29929 7.47546 4.38068C8.50239 4.45962 9.55678 3.84669 10.2159 3.04532Z" fill="black"/>
<path d="M33.8482 15.4073H31.6554L30.4542 11.8155H26.2791L25.1349 15.4073H23L27.1365 3.1792H29.6914L33.8482 15.4073ZM30.0921 10.3086L29.0059 7.11558C28.891 6.78938 28.6756 6.02122 28.358 4.81201H28.3193C28.1928 5.33208 27.9891 6.10024 27.7091 7.11558L26.6421 10.3086H30.0921Z" fill="black"/>
<path d="M44.4853 10.8902C44.4853 12.3898 44.0595 13.5751 43.2079 14.4452C42.4451 15.2198 41.4979 15.6067 40.3672 15.6067C39.1467 15.6067 38.27 15.1895 37.736 14.3552H37.6974V19H35.6388V9.49261C35.6388 8.54987 35.6127 7.58231 35.5625 6.58995H37.3729L37.4878 7.98753H37.5265C38.213 6.93452 39.2548 6.40894 40.653 6.40894C41.746 6.40894 42.6585 6.81966 43.3885 7.64204C44.1204 8.46533 44.4853 9.54775 44.4853 10.8902ZM42.3881 10.9619C42.3881 10.1037 42.1854 9.39614 41.7779 8.83931C41.3328 8.25859 40.7351 7.96823 39.9858 7.96823C39.4779 7.96823 39.0163 8.12995 38.604 8.44879C38.1908 8.77039 37.9204 9.19031 37.7939 9.71038C37.7302 9.95296 37.6983 10.1514 37.6983 10.3076V11.7778C37.6983 12.4192 37.905 12.9604 38.3182 13.4023C38.7315 13.8443 39.2684 14.0648 39.9288 14.0648C40.7042 14.0648 41.3077 13.78 41.7393 13.2121C42.1718 12.6434 42.3881 11.8936 42.3881 10.9619Z" fill="black"/>
<path d="M55.1431 10.8902C55.1431 12.3898 54.7173 13.5751 53.8647 14.4452C53.1028 15.2198 52.1556 15.6067 51.0249 15.6067C49.8044 15.6067 48.9277 15.1895 48.3947 14.3552H48.3561V19H46.2975V9.49261C46.2975 8.54987 46.2714 7.58231 46.2212 6.58995H48.0316L48.1465 7.98753H48.1852C48.8707 6.93452 49.9126 6.40894 51.3117 6.40894C52.4037 6.40894 53.3162 6.81966 54.0481 7.64204C54.7771 8.46533 55.1431 9.54775 55.1431 10.8902ZM53.0459 10.9619C53.0459 10.1037 52.8421 9.39614 52.4346 8.83931C51.9895 8.25859 51.3938 7.96823 50.6435 7.96823C50.1347 7.96823 49.6741 8.12995 49.2608 8.44879C48.8475 8.77039 48.5781 9.19031 48.4517 9.71038C48.3889 9.95296 48.3561 10.1514 48.3561 10.3076V11.7778C48.3561 12.4192 48.5627 12.9604 48.974 13.4023C49.3873 13.8434 49.9242 14.0648 50.5865 14.0648C51.3619 14.0648 51.9654 13.78 52.397 13.2121C52.8296 12.6434 53.0459 11.8936 53.0459 10.9619Z" fill="black"/>
<path d="M67.0587 11.9781C67.0587 13.0183 66.6792 13.8645 65.9174 14.5179C65.0802 15.2318 63.9148 15.5883 62.4172 15.5883C61.0345 15.5883 59.926 15.3347 59.0869 14.8266L59.5639 13.1938C60.4677 13.7139 61.4593 13.9748 62.5398 13.9748C63.3152 13.9748 63.9186 13.8076 64.3522 13.475C64.7838 13.1423 64.9991 12.6958 64.9991 12.1389C64.9991 11.6428 64.8214 11.2247 64.4651 10.8856C64.1108 10.5466 63.5189 10.2314 62.6924 9.94012C60.4426 9.14163 59.3187 7.97193 59.3187 6.43376C59.3187 5.42854 59.7126 4.60432 60.5015 3.96296C61.2875 3.32068 62.3361 3 63.6473 3C64.8166 3 65.788 3.19388 66.5633 3.58072L66.0487 5.17769C65.3245 4.8028 64.5057 4.61535 63.5894 4.61535C62.8652 4.61535 62.2994 4.78534 61.8938 5.12348C61.5511 5.42578 61.3792 5.79424 61.3792 6.2307C61.3792 6.71402 61.5752 7.11372 61.9691 7.42797C62.3119 7.71832 62.9347 8.03257 63.8385 8.37163C64.9441 8.79522 65.7561 9.29049 66.2785 9.85834C66.7989 10.4244 67.0587 11.1328 67.0587 11.9781Z" fill="black"/>
<path d="M73.8645 8.06022H71.5954V12.3412C71.5954 13.43 71.9951 13.974 72.7966 13.974C73.1644 13.974 73.4696 13.9437 73.711 13.883L73.7679 15.3706C73.3624 15.5149 72.8284 15.5875 72.167 15.5875C71.354 15.5875 70.7186 15.3513 70.26 14.88C69.8033 14.4077 69.5735 13.6156 69.5735 12.5029V8.05838H68.2217V6.58821H69.5735V4.97378L71.5954 4.39307V6.58821H73.8645V8.06022Z" fill="black"/>
<path d="M84.1023 10.9261C84.1023 12.2814 83.6948 13.3941 82.8818 14.2643C82.0292 15.1602 80.8975 15.6067 79.4868 15.6067C78.1273 15.6067 77.0449 15.1776 76.2377 14.3194C75.4305 13.4612 75.0269 12.3779 75.0269 11.0722C75.0269 9.70585 75.4421 8.58668 76.2753 7.71653C77.1067 6.84545 78.2287 6.40991 79.6394 6.40991C80.9989 6.40991 82.0929 6.83902 82.9185 7.69815C83.7083 8.53155 84.1023 9.60753 84.1023 10.9261ZM81.9664 10.9895C81.9664 10.1763 81.7839 9.47889 81.4141 8.89725C80.9825 8.19341 80.3655 7.84241 79.566 7.84241C78.7385 7.84241 78.1099 8.19433 77.6783 8.89725C77.3085 9.47981 77.126 10.1882 77.126 11.0262C77.126 11.8394 77.3085 12.5368 77.6783 13.1176C78.1234 13.8214 78.7453 14.1724 79.5477 14.1724C80.3336 14.1724 80.9506 13.8141 81.3958 13.0992C81.7752 12.5065 81.9664 11.8018 81.9664 10.9895Z" fill="black"/>
<path d="M90.7942 8.3128C90.5904 8.27697 90.3732 8.25859 90.1453 8.25859C89.4211 8.25859 88.8611 8.51863 88.4671 9.03962C88.1244 9.49905 87.9525 10.0798 87.9525 10.7808V15.4073H85.8948L85.9142 9.36673C85.9142 8.35048 85.8881 7.42519 85.8369 6.59087H87.63L87.7053 8.27789H87.7623C87.9795 7.69809 88.3223 7.23131 88.7916 6.88123C89.2502 6.56606 89.7456 6.40894 90.2795 6.40894C90.4697 6.40894 90.6416 6.4218 90.7942 6.44477V8.3128Z" fill="black"/>
<path d="M100 10.5814C100 10.9324 99.9759 11.2283 99.9247 11.4699H93.7489C93.773 12.341 94.0714 13.0072 94.645 13.4666C95.1654 13.8773 95.8384 14.0832 96.6649 14.0832C97.5793 14.0832 98.4136 13.9444 99.1638 13.666L99.4863 15.0259C98.6096 15.3898 97.5745 15.5708 96.3801 15.5708C94.9433 15.5708 93.8155 15.1683 92.9948 14.3643C92.176 13.5603 91.7656 12.4807 91.7656 11.1263C91.7656 9.79669 92.147 8.68947 92.9108 7.80645C93.7103 6.86371 94.7908 6.39233 96.1503 6.39233C97.4857 6.39233 98.4966 6.86371 99.1831 7.80645C99.7268 8.55532 100 9.48153 100 10.5814ZM98.037 10.0733C98.0505 9.49255 97.9163 8.99086 97.6373 8.56726C97.281 8.02238 96.7335 7.7504 95.9968 7.7504C95.3238 7.7504 94.7763 8.01595 94.3582 8.54889C94.0154 8.97248 93.8117 9.48061 93.7489 10.0723H98.037V10.0733Z" fill="black"/>
</svg>
