<svg width="18" height="18" viewBox="0 0 18 18" fill="none" xmlns="http://www.w3.org/2000/svg">
<path fill-rule="evenodd" clip-rule="evenodd" d="M10.9934 2.24049C11.4448 2.0248 12.0186 2.27409 12.1943 2.74288C12.4186 3.34105 12.786 4.09534 13.3465 4.65641C13.9069 5.21748 14.6604 5.58533 15.2579 5.80986C15.7261 5.98583 15.9751 6.56022 15.7597 7.01212C15.4693 7.62121 15.1547 8.41609 15.1547 9.00098C15.1547 9.614 15.5003 10.4577 15.8014 11.0764C16.008 11.5009 15.8031 12.0381 15.371 12.2276C14.758 12.4965 13.9429 12.9295 13.3465 13.5266C12.8046 14.0691 12.4431 14.7471 12.2171 15.2899C12.0271 15.746 11.4592 15.9851 11.0141 15.7714C10.4031 15.478 9.59767 15.1558 9.00678 15.1558C8.39623 15.1558 7.55689 15.4996 6.93947 15.8003C6.51351 16.0078 5.95713 15.8052 5.7498 15.3788C5.47937 14.8227 5.05819 14.0992 4.48624 13.5266C3.90344 12.9431 3.1641 12.5164 2.60458 12.2463C2.18776 12.0452 1.99585 11.5183 2.19949 11.1023C2.50347 10.4814 2.85885 9.62262 2.85885 9.00098C2.85885 8.40942 2.53703 7.60308 2.24393 6.99138C2.03042 6.54576 2.26925 5.97732 2.72491 5.78711C3.26709 5.56078 3.94434 5.19892 4.48624 4.65641C5.08269 4.0593 5.51518 3.24334 5.78373 2.62962C5.97302 2.19704 6.50963 1.99192 6.93371 2.19876C7.55171 2.50019 8.39444 2.84617 9.00678 2.84617C9.59101 2.84617 10.385 2.5312 10.9934 2.24049ZM12.0949 6.61734C11.8965 6.41055 11.5749 6.41055 11.3765 6.61734L7.92209 10.2256L6.6013 8.84886C6.40292 8.64207 6.08128 8.64207 5.88289 8.84886C5.68451 9.05565 5.68451 9.39093 5.88289 9.59772L7.60286 11.3906C7.70927 11.4965 7.98305 11.6447 8.22689 11.3906L12.0949 7.35867C12.2933 7.15188 12.2933 6.82413 12.0949 6.61734Z" fill="#57A6DF"/>
</svg>
