<?xml version="1.0" encoding="utf-8"?>
<!-- Generator: Adobe Illustrator 19.1.0, SVG Export Plug-In . SVG Version: 6.00 Build 0)  -->
<svg version="1.1" id="Layer_1" xmlns="http://www.w3.org/2000/svg" xmlns:xlink="http://www.w3.org/1999/xlink" x="0px" y="0px"
	 viewBox="-488 577 222.1 47" style="enable-background:new -488 577 222.1 47;" xml:space="preserve">
<style type="text/css">
	.st0{fill:#F7155B;}
</style>
<g>
	<path class="st0" d="M-488,602.6c0-2,0.4-3.8,1.1-5.3c0.7-1.5,1.7-2.8,3-3.8c1.3-1,2.8-1.8,4.5-2.3c1.7-0.5,3.6-0.8,5.7-0.8
		c2.5,0,4.7,0.4,6.7,1.2c2,0.8,3.5,2,4.7,3.5c1.2-1.5,2.8-2.7,4.7-3.5c1.9-0.8,4.1-1.2,6.6-1.2c2,0,3.9,0.3,5.6,0.8
		c1.7,0.5,3.2,1.3,4.5,2.3c1.3,1,2.3,2.3,3,3.8c0.7,1.5,1.1,3.3,1.1,5.3V623h-10.1v-17.5c0-2.1-0.4-3.6-1.3-4.6
		c-0.9-0.9-2.1-1.4-3.7-1.4s-2.9,0.5-4,1.6c-1,1.1-1.5,2.8-1.5,5.2V623h-10.1v-16.7c0-2.4-0.5-4.1-1.5-5.2c-1-1.1-2.3-1.6-3.9-1.6
		s-2.8,0.5-3.7,1.4c-0.9,0.9-1.3,2.4-1.3,4.6v17.6H-488V602.6L-488,602.6z"/>
	<path class="st0" d="M-420.9,608.2c0,4.3,2,6.5,5.9,6.5s5.9-2.2,5.9-6.5v-12.6c0-1.6,0.5-2.8,1.4-3.4c1-0.7,2.2-1,3.8-1
		c1.1,0,2.1,0.1,3.1,0.4c0.9,0.3,1.5,0.4,1.7,0.5V610c0,2.3-0.4,4.4-1.2,6.1c-0.8,1.7-1.9,3.2-3.3,4.3c-1.4,1.1-3.1,2-5.1,2.6
		s-4.1,0.9-6.3,0.9c-2.2,0-4.4-0.3-6.3-0.9c-2-0.6-3.6-1.4-5.1-2.6c-1.4-1.1-2.5-2.6-3.3-4.3c-0.8-1.7-1.2-3.8-1.2-6.1v-14.4
		c0-1.6,0.5-2.8,1.4-3.4c1-0.7,2.2-1,3.8-1c1.1,0,2.1,0.1,3.1,0.4c0.9,0.3,1.5,0.4,1.7,0.5V608.2L-420.9,608.2z"/>
	<path class="st0" d="M-393,581.4c0-1.6,0.5-2.8,1.4-3.4c1-0.7,2.2-1,3.8-1c1.1,0,2.1,0.1,3,0.4c0.9,0.3,1.5,0.4,1.7,0.5v15.8
		c0.7-0.7,1.9-1.5,3.4-2.3c1.5-0.8,3.4-1.2,5.8-1.2c2.1,0,4.1,0.4,6,1.2c1.9,0.8,3.5,1.9,4.9,3.4s2.5,3.2,3.3,5.3
		c0.8,2.1,1.2,4.4,1.2,6.9s-0.4,4.8-1.3,6.9c-0.9,2.1-2.1,3.9-3.6,5.3c-1.5,1.5-3.4,2.6-5.5,3.4c-2.1,0.8-4.4,1.2-6.8,1.2
		c-3,0-5.7-0.5-8.2-1.6c-2.5-1.1-4.5-2.7-6.1-4.7c-1-1.3-1.8-3-2.3-4.9c-0.5-2-0.8-4.3-0.8-6.9v-24.3
		C-393.1,581.4-393,581.4-393,581.4z M-375.9,614.7c2.1,0,3.8-0.7,5.2-2.1c1.4-1.4,2-3.2,2-5.4s-0.7-4.1-2-5.5
		c-1.4-1.4-3.1-2.2-5.2-2.2c-1,0-2,0.2-2.9,0.6c-0.9,0.4-1.6,0.9-2.3,1.6c-0.6,0.7-1.1,1.5-1.5,2.4c-0.4,0.9-0.5,1.9-0.5,3
		c0,2.3,0.7,4.2,2,5.5C-379.6,614-377.9,614.7-375.9,614.7z"/>
	<path class="st0" d="M-343.2,611.3c0.1,0.5,0.3,1,0.7,1.5s0.9,0.9,1.5,1.3c0.6,0.4,1.5,0.7,2.5,1c1,0.2,2.2,0.4,3.6,0.4
		c1.1,0,2.1-0.1,3.1-0.3s1.8-0.4,2.5-0.6c0.7-0.2,1.3-0.4,1.7-0.6c0.5-0.2,0.7-0.4,0.8-0.4l3.5,7c-0.3,0.2-0.9,0.5-1.7,0.9
		c-0.8,0.4-1.7,0.7-2.9,1.1c-1.2,0.4-2.5,0.7-4.1,1c-1.6,0.3-3.3,0.4-5.2,0.4c-2.3,0-4.5-0.4-6.6-1.1c-2-0.7-3.8-1.8-5.3-3.3
		c-1.5-1.4-2.7-3.2-3.6-5.3c-0.9-2.1-1.3-4.5-1.3-7.1c0-2.5,0.4-4.8,1.3-6.9c0.9-2.1,2.1-3.9,3.6-5.3c1.5-1.5,3.4-2.6,5.4-3.4
		c2.1-0.8,4.3-1.2,6.7-1.2c2.2,0,4.3,0.3,6.1,0.9c1.8,0.6,3.3,1.4,4.5,2.5c1.2,1,2.2,2.2,2.8,3.6c0.6,1.3,1,2.7,1,4.1
		c0,1.5-0.3,2.9-0.8,4.2c-0.5,1.2-1.5,2.3-2.9,3.1c-1.4,0.9-3.3,1.5-5.7,2s-5.4,0.7-9.2,0.7h-2V611.3L-343.2,611.3z M-343.8,604.8
		c2.8,0,5-0.1,6.5-0.3s2.7-0.5,3.4-0.8c0.7-0.3,1.2-0.7,1.4-1.1c0.2-0.4,0.2-0.8,0.2-1.2c0-0.9-0.4-1.6-1.2-2.3c-0.8-0.6-2-1-3.6-1
		c-1.1,0-2.1,0.2-2.9,0.6c-0.8,0.4-1.5,0.9-2.1,1.5c-0.6,0.6-1,1.3-1.3,2.2C-343.5,603.1-343.8,604-343.8,604.8z"/>
	<path class="st0" d="M-317.6,603c0-2,0.3-3.9,1-5.4c0.7-1.6,1.6-2.9,2.8-4c1.2-1.1,2.7-1.9,4.4-2.5c1.7-0.6,3.6-0.8,5.6-0.8
		c2.5,0,4.4,0.3,5.8,0.8c1.4,0.5,2.4,1.1,3,1.7c0.4,0.4,0.7,0.9,0.9,1.3c0.2,0.5,0.3,1,0.3,1.6c0,0.6-0.1,1.2-0.3,1.7
		s-0.4,1-0.7,1.4c-0.3,0.4-0.5,0.8-0.8,1.1c-0.3,0.3-0.4,0.5-0.6,0.6c-0.7-0.3-1.6-0.6-2.6-0.9c-1-0.3-2.1-0.4-3.3-0.4
		c-1.6,0-2.9,0.5-4,1.4c-1.1,0.9-1.7,2.4-1.7,4.6V623h-9.8V603L-317.6,603z"/>
	<path class="st0" d="M-289.9,586.2c0-1.6,0.5-2.8,1.4-3.4c1-0.7,2.2-1,3.8-1c1.1,0,2.1,0.1,3.1,0.4c0.9,0.3,1.5,0.4,1.7,0.5v8.4
		h7.2c1.9,0,3.2,0.4,4,1.1c0.8,0.8,1.2,1.9,1.2,3.4c0,1.1-0.2,2.1-0.5,3c-0.3,0.9-0.6,1.6-0.7,1.8h-11.1v9.8c0,1,0.1,1.7,0.4,2.3
		s0.7,1,1.1,1.3s0.9,0.6,1.5,0.7s1.1,0.2,1.7,0.2c1.2,0,2.2-0.2,3.2-0.5c1-0.4,1.6-0.7,2.1-0.9l3.9,6.9c-0.4,0.3-0.9,0.7-1.6,1.1
		s-1.6,0.8-2.6,1.2c-1,0.4-2.1,0.7-3.4,1c-1.2,0.3-2.6,0.4-3.9,0.4c-3.9,0-7-1-9.2-3.1s-3.3-4.8-3.3-8.3L-289.9,586.2L-289.9,586.2z
		"/>
</g>
</svg>
