<?xml version="1.0" encoding="utf-8"?>
<!-- Generator: Adobe Illustrator 22.1.0, SVG Export Plug-In . SVG Version: 6.00 Build 0)  -->
<svg version="1.1" id="Group_5" xmlns="http://www.w3.org/2000/svg" xmlns:xlink="http://www.w3.org/1999/xlink" x="0px" y="0px"
	 viewBox="0 0 32 32" style="enable-background:new 0 0 32 32;" xml:space="preserve">
<style type="text/css">
	.st0{fill:#FFFFFF;}
</style>
<g>
	<g>
		<path class="st0" d="M17.4,30.6V4.7l6.2,6.2c0.5,0.5,1.4,0.5,2,0c0.5-0.5,0.5-1.4,0-2L17,0.4c-0.5-0.5-1.4-0.5-2,0L6.5,8.9
			c-0.3,0.3-0.4,0.6-0.4,1s0.1,0.7,0.4,1c0.5,0.5,1.4,0.5,2,0l6.2-6.2v25.9c0,0.8,0.6,1.4,1.4,1.4C16.8,32,17.4,31.4,17.4,30.6
			L17.4,30.6z"/>
	</g>
</g>
</svg>
