<svg xmlns="http://www.w3.org/2000/svg" viewBox="0 0 31.997 28">
  <defs>
    <style>
      .cls-1 {
        fill: #fff;
      }
    </style>
  </defs>
  <g id="Group_6" data-name="Group 6" transform="translate(31.997 28) rotate(180)">
    <g id="Group_4" data-name="Group 4" transform="translate(0)">
      <path id="Path_1" data-name="Path 1" class="cls-1" d="M29.393,2.607a8.88,8.88,0,0,0-12.57,0L16,3.43l-.823-.823A8.892,8.892,0,0,0,2.6,15.177L15.018,27.6a1.4,1.4,0,0,0,.718.38A1.114,1.114,0,0,0,16,28a1.384,1.384,0,0,0,.971-.4L29.393,15.177a8.886,8.886,0,0,0,0-12.57ZM27.451,13.235,16,24.686,4.538,13.235A6.137,6.137,0,0,1,8.887,2.755a6.073,6.073,0,0,1,4.338,1.794l1.794,1.794a1.409,1.409,0,0,0,1.942,0l1.794-1.794a6.146,6.146,0,0,1,8.7,8.686Zm0,0" transform="translate(0)"/>
    </g>
  </g>
</svg>
