<?xml version="1.0" encoding="utf-8"?>
<!-- Generator: Adobe Illustrator 22.1.0, SVG Export Plug-In . SVG Version: 6.00 Build 0)  -->
<svg version="1.1" id="Group_11" xmlns="http://www.w3.org/2000/svg" xmlns:xlink="http://www.w3.org/1999/xlink" x="0px" y="0px"
	 viewBox="0 0 32 32" style="enable-background:new 0 0 32 32;" xml:space="preserve">
<style type="text/css">
	.st0{fill:#FFFFFF;}
</style>
<path id="Path_8" class="st0" d="M24,8.5c-4.8,0-7.1,3.9-9.1,7.3c-1.9,3.2-3.6,6-6.9,6c-2.8,0.1-5.2-2.1-5.3-5c0-0.1,0-0.2,0-0.4
	c0-2.9,2.4-5.3,5.3-5.3h2.1l-3.1,3.1l1.9,1.9l6.3-6.3L8.9,3.5L7.1,5.4l3.1,3.1H8c-4.4,0-8,3.6-8,8c-0.1,4.3,3.3,7.9,7.7,8
	c0.1,0,0.2,0,0.3,0c4.8,0,7.1-3.9,9.1-7.3c1.9-3.2,3.6-6,6.9-6c2.8-0.1,5.2,2.1,5.3,5c0,0.1,0,0.2,0,0.4c0,2.9-2.3,5.3-5.2,5.3
	c-1.7,0-3.2-0.7-4.2-2l-1.6,2.2c1.5,1.6,3.6,2.5,5.8,2.5c4.4,0,8-3.6,8-8c0.1-4.3-3.3-7.9-7.6-8C24.2,8.5,24.1,8.5,24,8.5z"/>
</svg>
