<?xml version="1.0" encoding="utf-8"?>
<!-- Generator: Adobe Illustrator 22.1.0, SVG Export Plug-In . SVG Version: 6.00 Build 0)  -->
<svg version="1.1" id="Layer_1" xmlns="http://www.w3.org/2000/svg" xmlns:xlink="http://www.w3.org/1999/xlink" x="0px" y="0px"
	 viewBox="0 0 32 28" style="enable-background:new 0 0 32 28;" xml:space="preserve">
<style type="text/css">
	.st0{fill:#FFFFFF;}
</style>
<g>
	<g>
		<path class="st0" d="M1.4,15.4h25.9l-6.2,6.2c-0.5,0.5-0.5,1.4,0,2c0.5,0.5,1.4,0.5,2,0l8.5-8.5c0.5-0.5,0.5-1.4,0-2l-8.5-8.5
			c-0.3-0.3-0.6-0.4-1-0.4c-0.4,0-0.7,0.1-1,0.4c-0.5,0.5-0.5,1.4,0,2l6.2,6.2H1.4C0.6,12.6,0,13.2,0,14C0,14.8,0.6,15.4,1.4,15.4
			L1.4,15.4z M1.4,15.4"/>
	</g>
</g>
</svg>
