<?xml version="1.0" encoding="utf-8"?>
<!-- Generator: Adobe Illustrator 22.1.0, SVG Export Plug-In . SVG Version: 6.00 Build 0)  -->
<svg version="1.1" id="Group_5" xmlns="http://www.w3.org/2000/svg" xmlns:xlink="http://www.w3.org/1999/xlink" x="0px" y="0px"
	 viewBox="0 0 32 28" style="enable-background:new 0 0 32 28;" xml:space="preserve">
<style type="text/css">
	.st0{fill:#FFFFFF;}
</style>
<g>
	<g>
		<path class="st0" d="M30.6,12.6H4.7l6.2-6.2c0.5-0.5,0.5-1.4,0-2c-0.5-0.5-1.4-0.5-2,0L0.4,13c-0.5,0.5-0.5,1.4,0,2l8.5,8.5
			c0.3,0.3,0.6,0.4,1,0.4c0.4,0,0.7-0.1,1-0.4c0.5-0.5,0.5-1.4,0-2l-6.2-6.2h25.9c0.8,0,1.4-0.6,1.4-1.4
			C32,13.2,31.4,12.6,30.6,12.6L30.6,12.6z M30.6,12.6"/>
	</g>
</g>
</svg>
